<?xml version="1.0" encoding="UTF-8" standalone="no"?>
<!--
*************Map created by Simplemaps.com********************		
*************Attribution is highly appreciated!***************
*************http://simplemaps.com****************************

The MIT License (MIT)

Copyright (c) 2020 Pareto Softare, LLC DBA Simplemaps.com

Permission is hereby granted, free of charge, to any person obtaining a copy
of this software and associated documentation files (the "Software"), to deal
in the Software without restriction, including without limitation the rights
to use, copy, modify, merge, publish, distribute, sublicense, and/or sell
copies of the Software, and to permit persons to whom the Software is
furnished to do so, subject to the following conditions:

The above copyright notice and this permission notice shall be included in
all copies or substantial portions of the Software.

THE SOFTWARE IS PROVIDED "AS IS", WITHOUT WARRANTY OF ANY KIND, EXPRESS OR
IMPLIED, INCLUDING BUT NOT LIMITED TO THE WARRANTIES OF MERCHANTABILITY,
FITNESS FOR A PARTICULAR PURPOSE AND NONINFRINGEMENT. IN NO EVENT SHALL THE
AUTHORS OR COPYRIGHT HOLDERS BE LIABLE FOR ANY CLAIM, DAMAGES OR OTHER
LIABILITY, WHETHER IN AN ACTION OF CONTRACT, TORT OR OTHERWISE, ARISING FROM,
OUT OF OR IN CONNECTION WITH THE SOFTWARE OR THE USE OR OTHER DEALINGS IN
THE SOFTWARE.

-->

<svg
   baseprofile="tiny"
   fill="#ececec"
   height="500"
   stroke="#000000"
   stroke-linecap="round"
   stroke-linejoin="round"
   stroke-width="0.2"
   version="1.2"
   viewbox="0 0 2000 857"
   width="1000"
   id="svg301"
   sodipodi:docname="us+europe.svg"
   inkscape:version="1.3.2 (091e20e, 2023-11-25, custom)"
   xmlns:inkscape="http://www.inkscape.org/namespaces/inkscape"
   xmlns:sodipodi="http://sodipodi.sourceforge.net/DTD/sodipodi-0.dtd"
   xmlns="http://www.w3.org/2000/svg"
   xmlns:svg="http://www.w3.org/2000/svg">
  <defs
     id="defs301" />
  <sodipodi:namedview
     id="namedview301"
     pagecolor="#ffffff"
     bordercolor="#666666"
     borderopacity="1.0"
     inkscape:showpageshadow="2"
     inkscape:pageopacity="0.0"
     inkscape:pagecheckerboard="0"
     inkscape:deskcolor="#d1d1d1"
     inkscape:zoom="0.99207081"
     inkscape:cx="472.24451"
     inkscape:cy="201.09452"
     inkscape:window-width="1920"
     inkscape:window-height="1017"
     inkscape:window-x="-8"
     inkscape:window-y="-8"
     inkscape:window-maximized="1"
     inkscape:current-layer="svg301" />
  <path
     d="m 891.44145,232.03197 0.4,1.2 1.4,-0.6 1.2,1.7 1.3,0.7 0.6,2.3 -0.5,2.2 1,2.7 2.3,1.5 0.1,1.7 -1.7,0.9 -0.1,2.1 -2.2,3.1 -0.9,-0.4 -0.2,-1.4 -3.1,-2.2 -0.7,-3 0.1,-4.4 0.5,-1.9 -0.9,-1 -0.5,-2.1 z"
     id="AL"
     name="Albania" />
  <path
     d="m 874.04145,194.83197 -0.3,0.8 0.7,2.1 -0.2,2.6 h -2.8 l 1.1,1.4 -1.3,4 -0.9,1.1 -4.4,0.1 -2.4,1.5 -4.2,-0.5 -7.3,-1.7 -1.3,-2.1 -4.9,1.1 -0.5,1.2 -3.1,-0.9 -2.6,-0.2 -2.3,-1.2 0.7,-1.5 -0.2,-1.1 1.4,-0.3 2.7,1.7 0.6,-1.7 4.4,0.3 3.5,-1.1 2.4,0.2 1.7,1.3 0.4,-1.1 -1,-4.1 1.7,-0.8 1.6,-2.9 3.8,2.1 2.6,-2.6 1.7,-0.5 4,1.9 2.3,-0.3 z"
     id="AT"
     name="Austria" />
  <path
     d="m 819.94145,181.13197 -0.4,4.2 -1.3,0.2 -0.4,3.5 -4.4,-2.9 -2.5,0.5 -3.5,-2.9 -2.4,-2.5 -2.2,-0.1 -0.8,-2.2 3.9,-1.2 3.6,0.5 4.5,-1.3 3.1,2.7 z"
     id="BE"
     name="Belgium" />
  <path
     d="m 936.04145,225.63197 -2.3,2.6 -1.3,4.5 2.1,3.6 -4.6,-0.8 -5,2 0.3,3.2 -4.6,0.6 -3.9,-2.3 -4,1.8 -3.8,-0.2 -0.8,-4.2 -2.8,-2.1 0.7,-0.8 -0.6,-0.8 0.6,-2 1.8,-2 -2.8,-2.7 -0.7,-2.4 1.1,-1.4 1.8,2.6 1.9,-0.4 4,0.9 7.6,0.4 2.3,-1.6 5.9,-1.5 4,2.3 z"
     id="BG"
     name="Bulgaria" />
  <path
     d="m 886.44145,218.33197 1.9,-0.1 -1.1,2.8 2.7,2.5 -0.5,2.9 -1.1,0.3 -0.9,0.6 -1.6,1.5 -0.4,3.5 -4.8,-2.4 -2.1,-2.7 -2.1,-1.4 -2.5,-2.4 -1.3,-1.9 -2.7,-3 0.8,-2.6 2,1.5 1,-1.4 2.3,-0.1 4.5,1.1 3.5,-0.1 z"
     id="BA"
     name="Bosnia and Herzegovina" />
  <path
     d="m 945.04145,166.73197 -3.9,-0.2 -0.8,0.6 1.5,2 2,4 -4.1,0.3 -1.3,1.4 0.3,3.1 -2.1,-0.6 -4.3,0.3 -1.5,-1.5 -1.7,1.1 -1.9,-0.9 -3.9,-0.1 -5.7,-1.5 -4.9,-0.5 -3.8,0.2 -2.4,1.6 -2.3,0.3 -0.5,-2.8 -1.9,-2.8 2.8,-1.3 -0.4,-2.4 -1.7,-2.3 -0.6,-2.7 h 4.7 l 4.8,-2.3 0.5,-3.4 3.6,-2 -1,-2.7 2.7,-1 4.6,-2.3 5.3,1.5 0.9,1.5 2.4,-0.7 4.8,1.4 1.1,2.9 -0.7,1.6 3.8,4 2.1,1.1 v 1.1 l 3.4,1.1 1.7,1.6 z"
     id="BY"
     name="Belarus" />
  <path
     d="m 291.24145,403.83197 h -1.7 l 1.3,-7.2 0.7,-5.1 0.1,-1 0.7,-0.3 0.9,0.8 2.5,-3.9 1.1,-0.1 -0.1,1 h 1 l -0.3,1.8 -1.3,2.7 0.4,1 -0.9,2.3 0.3,0.6 -1,3.3 -1.3,1.7 -1.1,0.2 z"
     id="BZ"
     name="Belize" />
  <path
     class="Canada"
     d="m 469.34145,207.63197 3.4,0.9 4.7,-0.2 -3.3,2.6 -2,0.4 -5.5,-2.7 -0.6,-2.1 2.5,-1.9 z"
     id="path9" />
  <path
     class="Canada"
     d="m 483.74145,191.63197 -2.4,0.1 -5.8,-1.9 -3.5,-3 1.9,-0.5 5.9,1.6 4.2,2.6 z"
     id="path10" />
  <path
     class="Canada"
     d="m 175.84145,195.33197 -3.1,0.9 -6.3,-2.8 v -2.2 l -2.9,-2.2 0.3,-1.8 -4.3,-1.1 0.6,-3.4 1.5,-1.4 4.1,1.3 2.4,1 4.1,0.6 0.2,2.2 0.4,2.9 3.2,2.6 z"
     id="path11" />
  <path
     class="Canada"
     d="m 514.94145,181.83197 -5,5.4 3.9,-2.1 2.9,1.4 -2.4,2.1 3.8,1.7 2.8,-1.5 4.3,1.9 -2.8,4.6 3.8,-1.1 -0.3,3.3 0.5,3.9 -3.6,5.6 -2.4,0.2 -2.9,-1.2 2.5,-5.1 -1.2,-0.8 -7.3,5.4 -3,-0.2 4.4,-3 -4.4,-1.5 -5.5,0.4 -9.6,-0.2 -0.2,-1.8 3.8,-2.3 -1.7,-1.6 5.4,-3.8 8.2,-9.9 4.2,-3.5 5,-2.1 2.1,0.2 -1.5,1.7 z"
     id="path12" />
  <path
     class="Canada"
     d="m 154.94145,160.43197 1.5,0.8 5,-0.5 -7.2,6.9 0.3,5 h -1.9 l -0.7,-2.8 0.5,-2.9 -0.8,-1.9 1.3,-2.7 z"
     id="path13" />
  <path
     class="Canada"
     d="m 438.34145,112.93197 -3.6,3 -1.7,-0.5 -0.1,-1.7 0.4,-0.4 2.8,-1.7 1.7,0.1 z"
     id="path14" />
  <path
     class="Canada"
     d="m 428.64145,109.73197 -7.2,3.2 -3,-0.2 v -1.5 l 5,-2.7 6,0.1 z"
     id="path15" />
  <path
     class="Canada"
     d="m 425.54145,92.93197 -0.9,2.5 2.7,-0.9 1.5,1.5 3.5,2 3.8,1.7 -1.4,2.7 3.5,-0.4 1.9,1.9 -5,1.8 -5.9,-1.4 -0.8,-2.6 -6.3,3.1 -8.2,2.9 0.7,-3.3 -6.3,0.5 5.7,-2.8 3.6,-4.5 5.1,-5.1 z"
     id="path16" />
  <path
     class="Canada"
     d="m 470.44145,84.63197 -4.9,0.3 0.7,-2.7 3.8,-3.1 4.3,-0.7 2.3,1.5 -1.5,2.3 -0.9,0.8 z"
     id="path17" />
  <path
     class="Canada"
     d="m 395.94145,73.93197 -4.1,1.9 -4.2,-1.6 -3.9,0.5 -3.4,-2.4 5,-1.7 4.9,-2.3 3,1.5 1.6,1 0.4,1 z"
     id="path18" />
  <path
     class="Canada"
     d="m 448.94145,216.53197 -2.2,-3.6 2.9,-8.5 -1.6,-1.8 -3.7,1 -1.1,-1.6 -5.5,4.7 -3.2,4.9 -2.8,2.9 -2.5,1 -1.7,0.3 -1.1,1.5 h -9.3 l -7.8,0.1 -2.7,1.1 -6.8,4.4 v -0.1 l -0.9,-0.4 -2,0.9 -1.9,1.3 -1.8,-1.1 -4.7,0.8 -3.9,0.9 -1.9,0.8 -2.3,2.1 1.8,0.7 1.7,-0.4 h 0.3 l -0.3,1.9 -4.8,0.7 -2.8,0.8 -1.7,1 -2.6,-0.6 -1.6,0.3 -2.9,1.8 -4.6,2 -2.7,-0.4 2,-2.2 3.7,-3.5 4.1,-2.1 1.1,-1.8 0.9,-3 3.8,-3.5 0.9,-4 1.1,3.9 3.8,0.9 2.4,-2.1 -1.4,-4.8 -0.9,-2 -4,-1.2 -3.8,-0.7 h -3.9 l -3.4,-0.8 -0.4,-1.4 -1.4,0.9 -1.2,-0.2 1.9,-2.1 -1.8,-0.8 1.9,-2.4 -1.2,-1.8 1.7,-1.8 -5.2,-0.9 -0.1,-3.6 -0.8,-0.8 -3.3,-0.2 -4.1,-1.2 -1.5,0.8 -1.8,1.5 -3.3,1 -3.1,2.5 -5.4,-1.7 -4.4,0.8 -3.9,-1.9 -4.6,-1 -3.3,-0.4 -1,-1 0.9,-3.4 h -1.7 l -1.3,2.4 h -10.2 -17 -16.8 -14.9 -14.8 -14.7 -15.1 -4.8 -14.7 -14.1 -0.7 l -5.4,-6.1 -1.6,-2.7 -7,-2.6 1.3,-5.5 3.6,-3.7 -4.1,-2.7 3.1,-4.9 -2.1,-4.4 2.5,-3.2 5.1,-2.9 3.2,-3.8 -4.6,-3.8 1.4,-6.9 1.1,-4.2 -1.6,-2.7 -0.8,-2.4 0.6,-3.1 -6.5,1.9 -7.6,3.3 -0.3,-3.8 -0.5,-2.6 -2.8,-1.6 -4.2,-0.2 35.6,-32.7 24.6,-20.4 6,1.3 3.3,2.6 3.7,0.5 6.3,-2.2 7,-1.7 5.3,0.6 8.9,-2.3 8.2,-1.3 0.2,2.2 4.5,-1.3 3.9,-2.5 2.1,0.6 1.4,4.8 9.5,-3.7 -3.9,4.1 6,-0.9 3.2,-1.5 4.6,0.3 3.9,2.2 7.5,2 4.7,0.9 4.4,-0.3 2.9,2.8 -8.5,2.7 6.4,1.1 11.9,-0.6 4.4,-1 1.4,3.3 7.1,-2.7 -2.1,-2.4 4.5,-1.8 5.2,-0.3 3.9,-0.5 2.1,1.3 1.5,2.9 5,-0.4 5.3,2.5 7.2,-0.9 6,0.1 2.4,-3.4 4.5,-0.9 4.9,1.8 -4.3,5.2 6.2,-4.4 3.2,0.2 6.4,-5.5 -1.6,-3.3 -2.9,-2.2 5.5,-5.9 8.2,-3.8 4.5,0.9 2,2.3 0.4,6 -5.8,2.6 6.7,1.1 -4.4,5.5 8.9,-4.2 2.2,3.5 -4.3,4 1.3,3.7 7.3,-3.9 6.5,-4.8 4.7,-5.9 5.5,0.4 5.4,0.8 3.6,2.7 -1.7,2.7 -5.1,2.9 0.9,2.9 -2.4,2.7 -10.9,3.9 -6.5,0.9 -3.2,-1.7 -3.3,2.8 -7.4,4.7 -3,2.5 -7.7,3.8 -6.5,0.4 -5.1,2.4 -2.9,3.8 -5.7,0.7 -8.7,4.7 -9.4,6.5 -5,4.6 -4.9,6.9 6,1 -1.5,5.5 -0.8,4.6 7.3,-1.2 7,2.6 3.3,2.3 1.7,2.8 4.9,1.7 3.6,2.5 7.6,0.4 4.8,0.6 -3.6,5.2 -1.7,6.1 0.1,6.9 4.4,5.9 4.7,-2 5.6,-6.4 2.3,-9.6 -1.7,-3.2 9,-2.9 7.5,-4.2 4.8,-4.2 1.7,-4 -0.4,-5.1 -3.2,-4.5 8.9,-6.2 1,-5.3 3.9,-9 3.8,-1.4 6.7,1.6 4.2,0.6 4.5,-1.6 3.1,2 3.6,3.4 0.2,2.2 7.7,0.5 -2.6,4.9 -2.3,7.4 3.8,1 1.6,3.5 8.2,-3.3 7.5,-6.6 4.2,-2.7 1.1,5.3 2.6,7.5 2,7.2 -3.4,3.8 4.8,3.4 2.9,3.4 6.9,1.6 2.4,1.9 v 5.2 l 3.4,0.8 1.1,2.3 -2,6.9 -4.3,2.3 -4.2,2.2 -8.8,2.2 -7.9,5 -8.6,1.1 -10.1,-1.4 h -7.3 l -5.3,0.4 -5.7,4.5 -7.4,2.8 -10.1,8.2 -7.9,5.8 4.7,-1 10.9,-8.3 12.3,-5.2 7.6,-0.6 3.3,3.1 -6.1,4.2 -0.6,6.7 0.1,4.8 5.6,3.1 8.6,-0.9 7.2,-7.1 -1,4.6 2.5,2.3 -7.4,4.1 -12.4,3.8 -5.8,2.5 -7.2,4.6 -3.7,-0.5 1.5,-5.3 10.4,-5.3 -8.1,0.2 z"
     id="path19" />
  <path
     class="Canada"
     d="m 342.44145,52.73197 -4.7,2.4 10.5,-1.5 2.6,2.6 7.3,-2.7 1.8,1.7 -2.2,5.1 4.3,-2.1 2.8,-5.3 4.3,-0.8 3,0.8 2.2,2.1 -2.7,5.1 -2.4,3.7 4.2,2.6 5,2.6 -2.6,2.3 -7.1,0.5 0.8,2 -3.2,2 -6.7,-0.8 -5.7,-1.5 -5.1,0.3 -9.5,1.9 -11.3,0.8 -7.9,0.5 0.3,-2.6 -4.1,-1.4 -4.3,0.6 -0.6,-4.3 3.3,-0.6 7.3,-0.9 5.5,0.3 6.2,-1 -6.5,-1.2 -9.1,0.4 -5.7,-0.1 v -1.9 l 11.7,-2.2 -6.3,0.1 -5.4,-1.4 7.8,-3.9 5.2,-2.1 14.2,-3.1 z"
     id="path20" />
  <path
     class="Canada"
     d="m 381.94145,51.23197 -7,3.4 -2.3,-3.6 2.1,-0.8 5.5,-0.2 z"
     id="path21" />
  <path
     class="Canada"
     d="m 490.54145,52.83197 -0.7,1.4 -4.1,-0.1 -4.1,-0.1 -4.9,0.7 -0.9,-0.4 -2.1,-2.7 1.7,-1.8 2.2,-0.4 8.4,0.6 z"
     id="path22" />
  <path
     class="Canada"
     d="m 450.74145,52.53197 0.3,3.2 7.2,-4.1 11.7,-2.1 2.3,5.3 -3.2,3.4 9,-1.5 5.3,-2.1 6.8,2.6 3.7,2.5 -1.1,2.3 8.2,-1.2 1.9,3.4 8.4,2.1 2.2,2.1 0.9,5.1 -9.1,2.5 7.7,3.6 5.9,1.2 3.3,5 6.5,0.4 -3.3,3.9 -10.9,6.5 -4,-2.4 -3.8,-5.4 -5.9,0.7 -2.3,3.3 2.7,3.2 4.5,2.6 1,1.5 -0.1,5.7 -3.6,4.1 -4.7,-1.6 -8.6,-4.5 3.6,4.9 2.8,3.5 -0.3,2 -10.9,-2.3 -7.6,-3.4 -3.8,-2.7 2.4,-1.7 -4.8,-2.9 -4.7,-2.7 -0.9,1.6 -13.1,0.9 -2.4,-1.9 5.4,-4.2 8.1,-0.1 9.3,-0.7 -0.2,-2 3.1,-2.8 8.8,-5.4 0.4,-2.5 -0.5,-1.8 -4.7,-2.7 -7.1,-1.8 3.5,-1.4 -2,-3.4 -3.4,-0.3 -1.9,-1.8 -3.3,1.6 -7.9,0.7 -14,-1.2 -7.4,-1.6 -5.9,-0.8 -1.9,-1.9 6.3,-2.4 h -5.7 l 3.3,-5.3 7.1,-4.6 6,-2.1 11.2,-1.4 z"
     id="path23" />
  <path
     class="Canada"
     d="m 400.34145,49.03197 3.6,1.1 7.6,-0.7 -0.5,1.5 -6.1,2.5 3.8,2.2 -5.2,4.7 -8.4,2 -3.4,-0.4 -0.9,-2 -5.9,-4 1.7,-1.7 7.4,0.6 -0.9,-3.3 z"
     id="path24" />
  <path
     class="Canada"
     d="m 422.94145,54.53197 -7.8,3.9 -4.4,-0.2 1.8,-4.6 2.6,-2.5 4.2,-2.2 5.2,-1.4 7.9,0.2 6.2,1.2 -10.1,4.6 z"
     id="path25" />
  <path
     class="Canada"
     d="m 307.14145,61.73197 -13.5,2.6 0.6,-2.3 -6,-2.8 4.4,-2.2 7.5,-3.8 7.6,-3.4 0.4,-3.1 14,-0.8 4.2,1.1 9.5,0.3 1.9,1.4 1.6,2.2 -6.5,1.3 -13.9,3.6 -9.2,3.7 z"
     id="path26" />
  <path
     class="Canada"
     d="m 432.34145,43.33197 -4.1,1.9 -5.2,-0.4 -3.2,-1.3 4.5,-2.2 6.9,-1.4 1.4,1.8 z"
     id="path27" />
  <path
     class="Canada"
     d="m 423.54145,34.63197 0.2,2.3 -2.8,2.5 -5.8,3.8 -6.9,0.5 -3.2,-0.8 3.4,-2.9 -6.6,0.3 4.3,-3.8 3.8,0.2 7.7,-1.7 4.9,0.3 z"
     id="path28" />
  <path
     class="Canada"
     d="m 384.14145,37.23197 -0.7,1.7 4.4,-0.8 3.6,0.2 -2.3,2.5 -5.1,2.3 -13.9,0.8 -12.3,2.2 -6,0.1 1.5,-1.6 10.7,-2.3 -17.9,0.6 -4.2,-0.9 11.7,-4.8 5.4,-1.4 8.3,1.7 2.9,2.9 6.1,0.4 0.7,-4.7 5.8,-1.8 3.1,0.5 z"
     id="path29" />
  <path
     class="Canada"
     d="m 439.84145,32.83197 2.3,1.6 h 7.4 l 1.4,1.6 -2.8,1.8 3.1,1.1 1.2,1.2 4.9,0.2 5.1,0.4 7.1,-1 8.1,-0.5 5.8,0.4 2.3,1.9 -1,2 -3.6,1.4 -6.7,1.1 -4.3,-0.7 -11.8,0.8 -8,0.1 -5.6,-0.6 -8.6,-1.6 1.6,-2.8 2.1,-2.4 -1.4,-2.2 -7,-0.6 -2.6,-1.5 3.8,-2 z"
     id="path30" />
  <path
     class="Canada"
     d="m 364.14145,30.23197 -5.8,3.7 -5.3,1.7 -3.8,0.2 -9.9,2.1 -7.1,0.8 -3.6,-1.1 11.7,-3.7 12.2,-3.1 5.5,0.1 z"
     id="path31" />
  <path
     class="Canada"
     d="m 445.34145,30.83197 -1.8,0.1 -6.6,-0.3 0.7,-1.3 7.2,0.1 1.6,0.8 z"
     id="path32" />
  <path
     class="Canada"
     d="m 386.54145,29.93197 -8.8,1.4 -3.3,-1.5 5.1,-1.5 6,-0.5 4.1,0.7 z"
     id="path33" />
  <path
     class="Canada"
     d="m 394.34145,25.73197 -5.7,0.9 h -6 l 1,-0.7 5.7,-1.3 1.7,0.2 z"
     id="path34" />
  <path
     class="Canada"
     d="m 441.14145,28.23197 -6.6,1 -1.6,-1.1 0.6,-1.7 2.2,-1.9 4.4,0.2 1.7,0.3 2.3,1.6 z"
     id="path35" />
  <path
     class="Canada"
     d="m 427.34145,27.03197 -1.1,1.9 -5.3,-0.5 -4,-1.5 -7.8,-0.2 5.3,-1.3 -2.8,-1.1 2.2,-1.8 6.1,0.6 7.5,1.7 z"
     id="path36" />
  <path
     class="Canada"
     d="m 481.44145,20.93197 2.7,1.5 -6.5,1.3 -10.6,3.5 -6.8,0.3 -6.8,-0.6 -1.6,-1.9 2.1,-1.6 4.3,-1.2 h -6.6 l -2,-1.5 0.4,-1.9 4.9,-1.9 4.1,-1.3 4,-0.3 -0.3,-1 8.3,-0.2 1.6,2.2 4.7,0.9 4.8,0.9 z"
     id="path37" />
  <path
     class="Canada"
     d="m 560.64145,6.9319702 8.7,0.3 6.7,0.5 5.2,1 -1.1,1 -9.8,1.6999998 -9,0.8 -4,0.9 h 7.5 l -10.5,2.5 -6.8,1.2 -9.3,3.5 -8.1,0.7 -3.1,1 -11.3,0.4 4.4,0.6 -3.3,0.8 0.7,2.3 -5,1.6 -6.9,1.3 -3.5,1.8 -6.6,1.5 -0.5,1.1 6.5,-0.2 -1.1,1.2 -12.7,2.9 -8.5,-1.4 -11.7,0.8 -5,-0.6 -6.8,-0.3 2.1,-2.3 8,-1.1 2,-3.4 2.6,-0.3 7.5,2 -1.7,-3 -4.9,-0.9 5,-1.8 7.6,-1.1 2.8,-1.6 -3,-1.7 1.1,-2.2 9.4,0.1 2.2,0.5 7.3,-1.6 -7.3,-0.5 -12.6,0.3 -4.4,-1.4 -0.8,-1.7 -2.5,-1.2 1.1,-1.3 6,-0.8 4.2,-0.1 7.4,-0.6 6.8,-1.4999998 3.9,0.2 2.4,1.1 5,-2 5.2,-0.6 6.5,-0.4 10.4,-0.2 1.3,0.4 10.3,-0.6 7,0.2 z"
     id="path38" />
  <path
     d="m 837.84145,201.53197 0.2,1.1 -0.7,1.5 2.3,1.2 2.6,0.2 -0.3,2.5 -2.1,1.1 -3.8,-0.8 -1,2.5 -2.4,0.2 -0.9,-1 -2.7,2.2 -2.5,0.3 -2.2,-1.4 -1.8,-2.7 -2.4,1 v -2.9 l 3.6,-3.5 -0.2,-1.6 2.3,0.6 1.3,-1.1 h 4.2 l 1,-1.3 z"
     id="CH"
     name="Switzerland" />
  <path
     d="m 318.04145,435.63197 1.2,3.5 2,2.6 2.5,2.7 -2.2,0.6 -0.1,2.6 1.1,0.9 -0.9,0.8 0.2,1.1 -0.6,1.3 -0.3,1.3 -3,-1.4 -1.1,-1.4 0.7,-1.1 -0.1,-1.4 -1.5,-1.5 -2.2,-1.3 -1.8,-0.8 -0.3,-1.9 -1.4,-1.1 0.2,1.8 -1.2,1.6 -1.2,-1.8 -1.7,-0.7 -0.7,-1.2 0.1,-2 0.9,-2 -1.5,-0.9 1.4,-1.3 0.9,-0.8 3.6,1.7 1.3,-0.8 1.8,0.5 0.8,1.3 1.7,0.5 z"
     id="CR"
     name="Costa Rica" />
  <path
     d="m 348.24145,359.73197 1.9,2.3 5.2,-0.7 1.8,1.5 4.2,4 3.2,2.9 1.8,-0.1 3.2,1.3 -0.6,1.8 4,0.3 3.9,2.6 -0.8,1.5 -3.8,0.8 -3.8,0.3 -3.7,-0.5 -8.1,0.6 4.2,-3.5 -2.1,-1.7 -3.6,-0.4 -1.7,-1.9 -0.8,-3.6 -3.2,0.2 -5,-1.7 -1.5,-1.4 -7.1,-1 -1.8,-1.2 2.3,-1.6 -5.4,-0.3 -4.4,3.3 -2.3,0.1 -1,1.6 -2.8,0.7 -2.3,-0.7 3.2,-1.9 1.5,-2.4 2.7,-1.4 3,-1.2 4.3,-0.6 1.4,-0.8 4.7,0.5 4.4,0.1 z"
     id="CU"
     name="Cuba" />
  <path
     d="m 863.14145,179.23197 2.5,2 3.7,0.5 -0.2,1.7 2.8,1.3 0.6,-1.6 3.4,0.7 0.7,2 3.7,0.3 2.6,3.1 h -1.5 l -0.7,1.1 -1.1,0.3 -0.2,1.4 -0.9,0.3 -0.1,0.6 -1.6,0.6 -2.2,-0.1 -0.6,1.4 -2.4,-1.2 -2.3,0.3 -4,-1.9 -1.7,0.5 -2.6,2.6 -3.8,-2.1 -3,-2.6 -2.6,-1.5 -0.7,-2.7 -1,-1.8 3.4,-1.3 1.7,-1.6 3.5,-1.2 1.1,-1.2 1.3,0.7 z"
     id="CZ"
     name="Czech Republic" />
  <path
     d="m 857.34145,162.93197 1.4,3.1 -1.2,1.7 1.9,2.1 1.5,3.3 -0.2,2.2 2.4,3.9 -2.2,0.6 -1.3,-0.7 -1.1,1.2 -3.5,1.2 -1.7,1.6 -3.4,1.3 1,1.8 0.7,2.7 2.6,1.5 3,2.6 -1.6,2.9 -1.7,0.8 1,4.1 -0.4,1.1 -1.7,-1.3 -2.4,-0.2 -3.5,1.1 -4.4,-0.3 -0.6,1.7 -2.7,-1.7 -1.4,0.3 -5.5,-1.9 -1,1.3 h -4.2 l 0.4,-4.5 2.4,-4.2 -7.2,-1.2 -2.4,-1.6 0.2,-2.7 -1,-1.4 0.4,-4.2 -1.1,-6.5 h 2.9 l 1.2,-2.3 0.9,-5.6 -0.9,-2.1 0.8,-1.3 4,-0.3 1,1.3 3.1,-3 -1.3,-2.3 -0.4,-3.4 3.7,0.8 2.9,-0.9 0.3,2.3 4.9,1.4 0.1,2.2 4.7,-1.2 2.6,-1.6 5.6,2.4 z"
     id="DE"
     name="Germany" />
  <path
     class="Denmark"
     d="m 849.54145,151.73197 -2.4,4.9 -5.2,-3.5 -0.9,-2.5 6.8,-2 z"
     id="path41" />
  <path
     class="Denmark"
     d="m 836.74145,155.53197 -2.9,0.9 -3.7,-0.8 -2.1,-3.4 -0.4,-6.1 0.6,-1.7 1.3,-1.8 4,-0.3 1.6,-1.7 3.6,-1.7 v 3.1 l -1.2,2 0.7,1.6 2.6,0.9 -1,2.3 -1.4,-0.6 -3.1,4.3 z"
     id="path42" />
  <path
     d="m 389.14145,390.03197 0.3,-1.8 -1.3,-1.9 1.5,-1.1 0.7,-2.5 -0.1,-3.4 0.8,-1.1 h 4.3 l 3.2,1.6 1.5,-0.1 0.7,2.3 3.1,-0.2 -0.4,1.9 2.5,0.3 2.5,2.3 -2.3,2.6 -2.6,-1.4 -2.6,0.3 -1.8,-0.3 -1.1,1.2 -2.2,0.4 -0.7,-1.6 -1.9,0.9 -2.7,4.4 -1.3,-1 z"
     id="DO"
     name="Dominican Republic" />
  <path
     d="m 917.14145,128.63197 0.9,1 -2.6,3.4 2.4,5.6 -1.6,1.9 -3.8,-0.1 -4.4,-2.2 -2.1,-0.7 -3.8,1 -0.1,-3.5 -1.5,0.8 -3.3,-2.1 -1,-3.4 5.5,-1.7 5.6,-0.8 5.1,0.9 z"
     id="EE"
     name="Estonia" />
  <path
     d="m 907.54145,74.13197 0.4,3.8 7.3,3.7 -2.9,4.2 6.5,6.3 -1.7,4.8 4.9,4.2 -0.9,3.8 7.4,3.9 -0.9,2.9 -3.4,3.4 -8,7.4 -8,0.5 -7.6,2.1 -7.1,1.3 -3.2,-3.2 -4.7,-1.9 0.1,-5.8 -3,-5.2 1.6,-3.4 3.3,-3.5 8.8,-6.2 2.6,-1.2 -0.9,-2.4 -6.5,-2.6 -1.8,-2.2 -1.8,-8.5 -7.2,-3.7 -6,-2.7 2.2,-1.4 5.1,2.8 5.3,-0.2 4.7,1.3 3.4,-2.4 1.1,-4 5.9,-1.8 5.8,2.1 z"
     id="FI"
     name="Finland" />
  <path
     class="United Kingdom"
     d="m 760.14145,162.23197 -3.5,-1.2 -3,0.1 1.2,-3.3 -0.9,-3.2 4,-0.3 4.9,3.8 z"
     id="path43" />
  <path
     class="United Kingdom"
     d="m 776.04145,133.53197 -5.1,6.5 4.7,-0.8 h 5.1 l -1.3,4.9 -4.3,5.4 4.9,0.3 0.3,0.7 4.2,7.1 3.2,1 2.9,7 1.4,2.4 5.9,1.1 -0.6,4 -2.4,1.8 1.9,3.2 -4.4,3.2 -6.5,-0.1 -8.4,1.8 -2.2,-1.3 -3.3,2.9 -4.5,-0.7 -3.6,2.4 -2.5,-1.2 7.3,-6.5 4.4,-1.4 -7.6,-1 -1.3,-2.5 5.1,-1.9 -2.5,-3.3 1,-4 7.1,0.6 0.8,-3.6 -3.1,-3.7 -0.1,-0.1 -5.7,-1.1 -1.1,-1.6 1.8,-2.7 -1.5,-1.7 -2.6,2.9 -0.1,-5.9 -2.2,-3 1.9,-6.2 3.8,-4.8 3.6,0.4 z"
     id="path44" />
  <path
     class="Greece"
     d="m 916.14145,276.63197 3.1,2.2 4.1,-0.4 4,0.4 v 1.2 l 2.8,-0.8 -0.5,1.9 -7.6,0.5 -0.1,-1 -6.6,-1.3 z"
     id="path45" />
  <path
     class="Greece"
     d="m 925.34145,243.93197 -3.2,-0.2 -2.7,-0.6 -6.2,1.6 4,3.6 -2.5,1.1 h -2.9 l -3.1,-3.3 -0.9,1.4 1.6,3.8 2.9,3 -1.9,1.4 3.2,2.9 2.8,1.9 0.4,3.6 -5,-1.7 1.8,3.3 -3.3,0.6 2.5,5.7 -3.5,0.1 -4.6,-2.8 -2.4,-5.1 -1.3,-4.3 -2.3,-2.9 -3,-3.7 -0.5,-1.8 2.2,-3.1 0.1,-2.1 1.7,-0.9 -0.1,-1.7 3.4,-0.5 1.8,-1.4 2.8,0.1 0.8,-1.1 1,-0.2 3.8,0.2 4,-1.8 3.9,2.3 4.6,-0.6 -0.3,-3.2 2.7,1.7 -1.1,4 z"
     id="path46" />
  <path
     d="m 699.74145,5.4319702 19.9,3 -6.7,1.4 -13,0.1999998 -18.5,0.4 1.4,0.7 12.3,-0.5 9.7,1.4 7,-1.2 2.4,1.4 -4.5,2.4 9.2,-1.6 17.1,-1.5 10,0.8 1.7,1.7 -14.8,2.9 -2.2,1 -11.4,0.8 8.1,0.2 -4.9,3.2 -3.6,2.9 -1.2,5.2 3.7,3.2 -5.9,0.1 -6.5,1.6 6.3,2.6 -0.1,4.2 -4.2,0.5 4.1,4.3 -8.7,0.4 4,2 -1.6,1.8 -5.7,0.8 -5.5,0.1 4.2,3.4 -0.5,2.4 -7.3,-2.2 -2.4,1.4 5,1.3 4.6,3.2 0.6,4.3 -7.4,1 -2.7,-2.1 -4.2,-3 0.5,3.6 -5.4,2.8 10.7,0.2 5.5,0.3 -11.9,4.7 -12.2,4.3 -12.7,1.8 -4.6,0.1 -4.9,2.1 -7.5,5.8 -10.2,3.9 -3,0.3 -6.1,1.3 -6.6,1.4 -4.8,3.4 -1.4,4 -3.4,3.8 -8.6,4.6 0.3,4.5 -3.6,4.8 -4.1,5.7 -6.5,0.4 -5,-4.8 -9,-0.1 -3.2,-3.2 -0.8,-5.6 -4.8,-7.2 -0.7,-3.7 1.5,-5.1 -3.7,-5.1 3.3,-4.1 -1.9,-2 7,-6.4 7.2,-2.1 2.6,-2.2 2.8,-4.2 -5.5,1.9 -2.6,0.8 -4.1,0.7 -4.2,-1.7 1.5,-3.7 3,-2.8 3.8,-0.1 7.6,1.5 -5.3,-3.4 -2.7,-1.8 -4.4,0.7 -2.6,-1.3 7,-4.8 -1.3,-2 -1.1,-3.5 -1.4,-5.4 -3.6,-1.9 1.4,-2.1 -8.1,-2.9 -7.7,-0.4 -10.1,0.2 -9.5,0.4 -3.1,-1.6 -3.8,-3.1 11,-1.5 7.6,-0.2 -14.6,-1.3 -6.5,-1.9 2.2,-1.8 15.7,-2.2 15,-2.2 2.8,-1.6 -8.1,-1.6 4.6,-1.7 14.7,-2.9 5.4,-0.4 0.2,-1.8 9,-1.1 11,-0.6 h 10.4 l 2.8,1.2 10.6,-2.1999998 7.1,1.4999998 4.6,0.3 6.2,1.3 -6.7,-2.1 1.6,-1.6999998 12.7,-2.2 11.6,0.2 5.1,-1.4 11.9,-0.3 z"
     id="GL"
     name="Greenland" />
  <path
     d="m 291.54145,391.53197 -0.7,5.1 -1.3,7.2 h 1.7 l 1.7,1.2 0.6,-1 1.5,0.8 -2.8,2.5 -2.9,1.8 -0.5,1.2 0.3,1.3 -1.3,1.6 -1.4,0.4 0.3,0.8 -1.2,0.7 -2,1.6 -0.3,0.9 -2.8,-1.1 -3.5,-0.1 -2.4,-1.3 -2.8,-2.6 0.4,-1.9 0.8,-1.5 -0.7,-1.2 3.3,-5.2 h 7.2 l 0.4,-2.2 -0.8,-0.4 -0.5,-1.4 -1.9,-1.5 -1.8,-2.1 2.5,-0.1 0.5,-3.6 h 5.2 z"
     id="GT"
     name="Guatemala" />
  <path
     d="m 323.04145,409.53197 -1.9,-0.1 -0.9,0.9 -2,0.8 h -1.4 l -1.3,0.8 -1.1,-0.2 -0.9,-1 -0.6,0.2 -0.9,1.5 -0.5,-0.1 -0.2,1.4 -2.1,1.7 -1.2,0.8 -0.6,0.8 -1.5,-1.3 -1.4,1.7 h -1.2 l -1.3,0.1 -0.2,3.2 h -0.8 l -0.8,1.5 -1.8,0.3 -0.8,-2 -1.7,-0.6 0.7,-2.6 -0.7,-0.7 -1.2,-0.4 -2.5,0.7 -0.1,-0.8 -1.6,-1.1 -1.1,-1.2 -1.6,-0.6 1.3,-1.6 -0.3,-1.3 0.5,-1.2 2.9,-1.8 2.8,-2.5 0.6,0.3 1.3,-1.1 1.6,-0.1 0.5,0.5 0.9,-0.3 2.6,0.6 2.6,-0.2 1.8,-0.7 0.8,-0.7 1.7,0.3 1.3,0.4 1.5,-0.1 1.2,-0.6 2.5,0.9 0.8,0.2 1.6,1.2 1.5,1.4 1.9,1 z"
     id="HN"
     name="Honduras" />
  <path
     d="m 884.94145,211.63197 1.5,2.5 1.7,1.8 -1.7,2.4 -2.4,-1.4 -3.5,0.1 -4.5,-1.1 -2.3,0.1 -1,1.4 -2,-1.5 -0.8,2.6 2.7,3 1.3,1.9 2.5,2.4 2.1,1.4 2.1,2.7 4.8,2.4 -0.5,1 -5,-2.3 -3.2,-2.3 -4.8,-1.9 -4.7,-4.6 1,-0.5 -2.5,-2.7 -0.3,-2.1 -3.3,-1 -1.4,2.7 -1.6,-2.1 v -2.2 l 0.1,-0.1 3.6,0.2 0.8,-1 1.8,1 2,0.1 -0.1,-1.7 1.7,-0.7 0.3,-2.5 3.9,-1.7 1.6,0.8 4,2.7 4.3,1.2 z"
     id="HR"
     name="Croatia" />
  <path
     d="m 390.24145,379.33197 0.1,3.4 -0.7,2.5 -1.5,1.1 1.3,1.9 -0.3,1.8 -3.6,-1.1 -2.7,0.4 -3.4,-0.4 -2.7,1.2 -2.8,-2 0.7,-2.1 5.1,0.9 4.1,0.5 2.2,-1.4 -2.3,-2.8 0.4,-2.5 -3.5,-1 1.5,-1.7 3.4,0.2 z"
     id="HT"
     name="Haiti" />
  <path
     d="m 899.64145,195.93197 3,1.7 0.5,1.7 -2.9,1.3 -1.9,4.2 -2.6,4.3 -3.9,1.2 -3.2,-0.3 -3.7,1.6 -1.8,1 -4.3,-1.2 -4,-2.7 -1.6,-0.8 -1.2,-2.1 -0.8,-0.1 1.3,-4 -1.1,-1.4 h 2.8 l 0.2,-2.6 2.7,1.7 1.9,0.6 4.1,-0.7 0.3,-1.3 1.9,-0.2 2.3,-0.9 0.6,0.4 2.3,-0.8 1,-1.5 1.6,-0.4 5.5,1.9 z"
     id="HU"
     name="Hungary" />
  <path
     d="m 760.14145,162.23197 0.7,4.4 -3.9,5.5 -8.8,3.6 -6.8,-0.9 4.3,-6.4 -2.1,-6.2 6.7,-4.8 3.7,-2.8 0.9,3.2 -1.2,3.3 3,-0.1 z"
     id="IE"
     name="Ireland" />
  <path
     d="m 728.24145,88.53197 -1.4,3.6 4.4,3.8 -6.1,4.3 -13.1,3.9 -3.9,1.1 -5.6,-0.9 -11.9,-1.8 4.8,-2.5 -9,-2.7 7.9,-1.1 0.1,-1.7 -8.8,-1.3 3.6,-3.7 6.6,-0.8 6,3.8 7,-3 5.1,1.5 7.3,-2.9 z"
     id="IS"
     name="Iceland" />
  <path
     class="Italy"
     d="m 871.64145,260.43197 -1.7,5.1 0.9,1.9 -0.9,3.3 -4.2,-2.4 -2.7,-0.7 -7.5,-3.2 0.5,-3.3 6.2,0.6 5.4,-0.7 z"
     id="path60" />
  <path
     class="Italy"
     d="m 837.64145,241.43197 3.3,4.5 -0.4,8.5 -2.4,-0.4 -2.1,2.1 -2,-1.7 -0.5,-7.7 -1.3,-3.6 2.9,0.3 z"
     id="path61" />
  <path
     class="Italy"
     d="m 859.34145,207.93197 -0.4,3.1 1.4,2.7 -4.1,-1 -3.9,2.3 0.4,3.1 -0.5,1.8 1.9,3.2 5,3.2 2.9,5.3 6.1,5.1 4,-0.1 1.4,1.4 -1.4,1.3 4.8,2.3 4,1.9 4.7,3.4 0.6,1.1 -0.8,2.3 -3.1,-3 -4.6,-1 -1.9,4.1 3.9,2.4 -0.4,3.3 -2.1,0.4 -2.5,5.5 -2.2,0.5 -0.1,-2 0.9,-3.4 1.1,-1.4 -2.3,-3.7 -1.8,-3.2 -2.2,-0.8 -1.8,-2.7 -3.4,-1.2 -2.4,-2.6 -3.8,-0.4 -4.3,-2.8 -4.9,-4.2 -3.7,-3.6 -1.9,-6.3 -2.6,-0.7 -4.2,-2.1 -2.3,0.8 -2.9,3 -2.1,0.4 0.5,-2.7 -2.8,-0.8 -1.5,-4.9 1.7,-1.9 -1.5,-2.4 0.1,-1.8 2.2,1.4 2.5,-0.3 2.7,-2.2 0.9,1 2.4,-0.2 1,-2.5 3.8,0.8 2.1,-1.1 0.3,-2.5 3.1,0.9 0.5,-1.2 4.9,-1.1 1.3,2.1 z"
     id="path62" />
  <path
     d="m 359.94145,391.13197 -1.8,1.1 -3,-1.1 -2.9,-2.3 0.8,-1.5 2.4,-0.4 1.3,0.2 3.7,0.6 2.7,1.5 0.8,1.8 z"
     id="JM"
     name="Jamaica" />
  <path
     d="m 914.54145,151.63197 1,2.7 -3.6,2 -0.5,3.4 -4.8,2.3 h -4.7 l -1.4,-1.9 -2.5,-0.7 -0.6,-1.5 0.2,-1.7 -2.2,-0.9 -5.1,-1.1 -1.7,-5.1 5.1,-1.8 7.9,0.4 4.5,-0.6 0.9,1.2 2.5,0.4 z"
     id="LT"
     name="Lithuania" />
  <path
     d="m 820.34145,189.43197 -1.4,0.1 -1.1,-0.5 0.4,-3.5 1.3,-0.2 1,1.4 z"
     id="LU"
     name="Luxembourg" />
  <path
     d="m 916.24145,140.53197 2.5,1.3 1,2.9 2.1,3.6 -4.6,2.3 -2.7,1 -5,-2.9 -2.5,-0.4 -0.9,-1.2 -4.5,0.6 -7.9,-0.4 -5.1,1.8 -0.5,-4.5 1.7,-3.8 4.1,-2 4.4,4.5 3.7,-0.2 0.1,-4.6 3.8,-1 2.1,0.7 4.4,2.2 z"
     id="LV"
     name="Latvia" />
  <path
     d="m 932.84145,214.33197 -1.3,-2.9 0.2,-2.7 -0.6,-2.7 -3.4,-3.8 -2,-2.6 -1.8,-1.8 -1.6,-0.7 1.1,-0.9 3.2,-0.6 4,1.9 2,0.3 2.6,1.7 -0.1,2.1 2,1 1.1,2.6 2,1.6 -0.2,1 1,0.6 -1.3,0.5 -3,-0.2 -0.6,-0.9 -1,0.5 0.6,1.1 -1.1,2.1 -0.6,2.1 z"
     id="MD"
     name="Moldova" />
  <path
     d="m 252.74145,339.93197 2.2,-0.2 -3.2,5.7 -1.8,4.6 -1.8,8.6 -1.1,3.1 0.4,3.5 1.3,3.2 0.4,4.9 3,4.8 0.8,3.7 1.7,3.1 5.7,1.7 1.9,2.7 5.2,-1.8 4.3,-0.6 4.4,-1.2 3.6,-1.1 3.9,-2.6 1.8,-3.7 1.2,-5.4 1.2,-1.9 4,-1.7 6.1,-1.5 4.9,0.3 3.4,-0.6 1.2,1.4 -0.6,3.1 -3.5,3.8 -1.8,3.9 0.9,1.1 -1.2,2.8 -2.1,5 -1.2,-1.7 -1.1,0.1 -1.1,0.1 -2.5,3.9 -0.9,-0.8 -0.7,0.3 -0.1,1 -5.2,-0.1 h -5.2 l -0.5,3.6 -2.5,0.1 1.8,2.1 1.9,1.5 0.5,1.4 0.8,0.4 -0.4,2.2 h -7.2 l -3.3,5.2 0.7,1.2 -0.8,1.5 -0.4,1.9 -5.6,-6.9 -2.6,-2.1 -4.4,-1.7 -3.2,0.5 -4.8,2.4 -2.9,0.6 -3.7,-1.7 -4.1,-1.2 -4.8,-2.9 -4.1,-0.9 -5.9,-3 -4.3,-3.1 -1.1,-1.7 -3.1,-0.4 -5.4,-2 -1.9,-2.9 -5.4,-3.7 -2.2,-4 -0.8,-3.2 1.9,-0.6 -0.3,-1.8 1.6,-1.7 0.4,-2.2 -1.5,-2.9 v -2.5 l -1.3,-3.3 -3.8,-6.4 -4.6,-5 -1.9,-4 -4.1,-2.6 -0.7,-1.6 1.7,-3.9 -2.4,-1.5 -2.5,-3.2 -0.2,-4.4 -2.8,-0.6 -2.3,-3.3 -1.7,-3.2 0.3,-2 -1.5,-4.8 -0.3,-4.9 0.8,-2.5 -3.1,-2.6 -1.9,0.3 -2.4,-1.7 -1.8,2.6 -0.1,3 -1,4.9 1,2.6 2.8,4.4 0.4,1.6 0.7,0.4 0.1,2.2 1,-0.1 v 4.2 l 1.3,1.6 0.5,2.3 2.7,3.2 0.4,6 1,2.8 0.9,3 -0.3,3.4 2.6,0.2 1.6,2.9 1.5,2.9 -0.3,1.2 -2.8,2.3 h -1 l -0.7,-3.9 -2.9,-3.7 -3.4,-3.1 -2.5,-1.6 1.2,-4.7 -0.1,-3.5 -2.1,-2 -3.1,-2.8 -0.9,0.8 -1,-1.7 -3,-1.5 -2.2,-3.8 0.5,-0.4 2.1,0.3 2.7,-2.4 1,-2.9 -2.9,-4.6 -2.6,-1.7 -0.8,-4 -0.6,-4.3 -0.8,-5.1 -0.2,-5.8 6.3,-0.5 7.1,-0.7 -0.9,1.3 7,3.1 10.9,4.5 h 10.8 4.3 l 0.8,-2.7 h 9.4 l 1.3,2.3 2.1,2.1 2.4,2.8 0.8,3.3 0.4,3.6 2.3,1.9 4,1.9 4.8,-5 4.5,-0.2 3.2,2.6 1.6,4.4 0.9,3.8 2.4,3.6 0.2,4.5 0.9,3 3.9,2 z"
     id="MX"
     name="Mexico" />
  <path
     d="m 908.94145,240.63197 -1,0.2 -0.8,1.1 -2.8,-0.1 -1.8,1.4 -3.4,0.5 -2.3,-1.5 -1,-2.7 0.5,-2.2 0.7,0.1 0.1,-1.3 2.9,-1 1.2,-0.3 1.7,-0.3 2.4,-0.2 2.8,2.1 z"
     id="MK"
     name="Macedonia" />
  <path
     d="m 894.04145,231.23197 -0.8,1.4 -1.4,0.6 -0.4,-1.2 -1.9,3.1 0.5,2.1 -1.1,-0.5 -1.7,-2.1 -2.3,-1.3 0.5,-1 0.4,-3.5 1.6,-1.5 0.9,-0.6 1.4,1.1 0.9,0.9 1.7,0.7 2.1,1.3 z"
     id="ME"
     name="Montenegro" />
  <path
     d="m 323.04145,409.53197 -0.5,0.7 -0.5,1.4 0.4,2.3 -1.5,2.2 -0.8,2.6 -0.5,2.8 0.2,1.7 -0.1,2.9 -0.9,0.6 -0.7,2.8 0.2,1.7 -1.2,1.6 0.1,1.7 0.8,1.1 -1.4,1.4 -1.7,-0.5 -0.8,-1.3 -1.8,-0.5 -1.3,0.8 -3.6,-1.7 -0.9,0.8 -1.8,-2 -2.5,-2.6 -1.1,-2.1 -2.2,-2.1 -2.5,-2.9 0.7,-1 0.8,1 0.5,-0.4 1.8,-0.3 0.8,-1.5 h 0.8 l 0.2,-3.2 1.3,-0.1 h 1.2 l 1.4,-1.7 1.5,1.3 0.6,-0.8 1.2,-0.8 2.1,-1.7 0.2,-1.4 0.5,0.1 0.9,-1.5 0.6,-0.2 0.9,1 1.1,0.2 1.3,-0.8 h 1.4 l 2,-0.8 0.9,-0.9 z"
     id="NI"
     name="Nicaragua" />
  <path
     class="Norway"
     d="m 917.14145,71.53197 -6.4,2.1 -3.2,0.5 0.8,-3.8 -5.8,-2.1 -5.9,1.8 -1.1,4 -3.4,2.4 -4.7,-1.3 -5.3,0.2 -5.1,-2.8 -2.2,1.4 -2.6,0.2 0.1,3.6 -8,-0.9 -0.6,3.1 h -4 l -2.3,3.9 -3.4,6.1 -5.7,7.9 1.8,2 -1.3,2.2 -4.3,-0.1 -2.4,5.4 1,7.7 3.1,2.9 -0.8,6.9 -3.4,4 -1.8,3.4 -3.3,-3.6 -8.6,6.8 -6.1,1.4 -6.5,-3 -1.8,-6.3 -2,-13.5 4,-3.7 11.3,-4.9 8.1,-5.9 7.2,-7.8 8.9,-10.7 6.4,-4.1 10.3,-6.8 8.5,-2.4 6.7,0.3 5.2,-4.4 7.4,0.2 7,-1 13.7,3.9 -4.9,1.4 z"
     id="path68" />
  <path
     class="Norway"
     d="m 880.04145,29.23197 -7.6,1.9 -6.8,-1.1 2.2,-1.2 -2.6,-1.5 7.3,-0.9 1.9,1.7 z"
     id="path69" />
  <path
     class="Norway"
     d="m 854.44145,20.73197 12.6,3.4 -8.6,1.8 -1.2,3.4 -3,0.9 -0.9,4 -4.4,0.2 -8.5,-2.9 3,-1.7 -5.7,-1.4 -7.7,-3.9 -3.2,-3.5 9.3,-1.6 2.3,1.5 h 5 l 1,-1.5 5.2,-0.2 z"
     id="path70" />
  <path
     class="Norway"
     d="m 878.84145,17.73197 7.4,1.5 -4.4,2.4 -10.1,0.5 -10.7,-0.8 -1,-1.2 h -5.1 l -4.3,-2 10.5,-1.2 5.4,1 3.1,-1.3 z"
     id="path71" />
  <path
     d="m 352.74145,450.23197 -0.7,0.9 1.1,3.8 -1.1,1.9 -1.8,-0.5 -0.9,3.1 -1.8,-1.8 -1,-3.5 1.4,-1.7 -1.4,-0.4 -0.9,-2.1 -2.8,-1.8 -2.4,0.4 -1.3,2.2 -2.4,1.6 -1.2,0.2 -0.6,1.4 2.5,3.5 -1.6,0.8 -0.8,0.9 -2.7,0.4 -0.8,-3.9 -0.8,1.1 -1.8,-0.4 -1,-2.5 -2.3,-0.5 -1.5,-0.7 h -2.4 l -0.2,1.4 -0.6,-1 0.3,-1.3 0.6,-1.3 -0.2,-1.1 0.9,-0.8 -1.1,-0.9 0.1,-2.6 2.2,-0.6 1.9,2.3 -0.2,1.4 2.2,0.3 0.6,-0.6 1.5,1.6 2.8,-0.5 2.5,-1.6 3.5,-1.3 2,-1.9 3.1,0.4 -0.2,0.6 3.1,0.2 2.4,1.2 1.8,1.9 z"
     id="PA"
     name="Panama" />
  <path
     d="m 883.34145,158.83197 5.9,0.7 8.8,-0.1 2.5,0.7 1.4,1.9 0.6,2.7 1.7,2.3 0.4,2.4 -2.8,1.3 1.9,2.8 0.5,2.8 3.2,5.4 -0.3,1.7 -2.3,0.7 -3.8,5.2 1.6,2.8 -1.1,-0.4 -5,-2.4 -3.5,0.9 -2.4,-0.6 -2.8,1.3 -2.7,-2.2 -1.9,0.9 -0.3,-0.4 -2.6,-3.1 -3.7,-0.3 -0.7,-2 -3.4,-0.7 -0.6,1.6 -2.8,-1.3 0.2,-1.7 -3.7,-0.5 -2.5,-2 -2.4,-3.9 0.2,-2.2 -1.5,-3.3 -1.9,-2.1 1.2,-1.7 -1.4,-3.1 3.1,-1.8 7.1,-2.8 5.8,-2 4.8,1 0.6,1.5 z"
     id="PL"
     name="Poland" />
  <path
     d="m 922.34145,197.13197 1.6,0.7 1.8,1.8 2,2.6 3.4,3.8 0.6,2.7 -0.2,2.7 1.3,2.9 2.4,1.2 2.3,-1.1 2.4,1.1 0.4,1.7 -2.3,1.3 -1.6,-0.6 -0.4,7.7 -3.1,-0.7 -4,-2.3 -5.9,1.5 -2.3,1.6 -7.6,-0.4 -4,-0.9 -1.9,0.4 -1.8,-2.6 -1,-1.1 1,-1.1 -1.3,-0.7 -1.5,1.4 -3.1,-1.9 -0.7,-2.6 -3.2,-1.4 -0.8,-2.1 -3,-2.4 3.9,-1.2 2.6,-4.3 1.9,-4.2 2.9,-1.3 2,-1.4 3.2,0.7 h 3.2 l 2.5,1.6 1.6,-1 3.6,-0.6 1,-1.5 z"
     id="RO"
     name="Romania" />
  <path
     d="m 295.94145,419.93197 -0.7,1.5 -3.3,-0.1 -2,-0.6 -2.2,-1.3 -3,-0.4 -1.5,-1.4 0.3,-0.9 2,-1.6 1.2,-0.7 -0.3,-0.8 1.4,-0.4 1.6,0.6 1.1,1.2 1.6,1.1 0.1,0.8 2.5,-0.7 1.2,0.4 0.7,0.7 z"
     id="SV"
     name="El Salvador" />
  <path
     d="m 905.44145,222.23197 -1.1,1.4 0.7,2.4 2.8,2.7 -1.8,2 -0.6,2 0.6,0.8 -0.7,0.8 -2.4,0.2 -1.7,0.3 -0.3,-0.5 0.6,-0.7 0.4,-1.6 -0.7,0.1 -1.1,-1.2 -0.9,-0.3 -0.8,-1 -1,-0.4 -0.8,-0.9 -0.9,0.4 -0.5,2.1 -1.2,0.4 0.4,-0.5 -2.1,-1.3 -1.7,-0.7 -0.9,-0.9 -1.4,-1.1 1.1,-0.3 0.5,-2.9 -2.7,-2.5 1.1,-2.8 -1.9,0.1 1.7,-2.4 -1.7,-1.8 -1.5,-2.5 3.7,-1.6 3.2,0.3 3,2.4 0.8,2.1 3.2,1.4 0.7,2.6 3.1,1.9 1.5,-1.4 1.3,0.7 -1,1.1 z"
     id="RS"
     name="Serbia" />
  <path
     d="m 901.54145,191.73197 -1.2,1.7 -0.7,2.5 -1,0.6 -5.5,-1.9 -1.6,0.4 -1,1.5 -2.3,0.8 -0.6,-0.4 -2.3,0.9 -1.9,0.2 -0.3,1.3 -4.1,0.7 -1.9,-0.6 -2.7,-1.7 -0.7,-2.1 0.3,-0.8 0.6,-1.4 2.2,0.1 1.6,-0.6 0.1,-0.6 0.9,-0.3 0.2,-1.4 1.1,-0.3 0.7,-1.1 h 1.5 l 0.3,0.4 1.9,-0.9 2.7,2.2 2.8,-1.3 2.4,0.6 3.5,-0.9 z"
     id="SK"
     name="Slovakia" />
  <path
     d="m 873.24145,207.93197 -3.9,1.7 -0.3,2.5 -1.7,0.7 0.1,1.7 -2,-0.1 -1.8,-1 -0.8,1 -3.6,-0.2 1.1,-0.5 -1.4,-2.7 0.4,-3.1 4.2,0.5 2.4,-1.5 4.4,-0.1 0.9,-1.1 0.8,0.1 z"
     id="SI"
     name="Slovenia" />
  <path
     d="m 891.64145,91.03197 -7,1.6 -3.5,3.9 1.3,3.5 -6.2,4.5 -7.8,5 -2.1,8.1 3.7,4.1 4.8,3.3 -3.3,6.6 -4.6,1.4 -0.6,10 -2.1,5.7 -5.7,-0.6 -2.2,4.8 -5.5,0.3 -1.9,-5.7 -4.5,-6.9 -4.2,-8.4 1.8,-3.4 3.4,-4 0.8,-6.9 -3.1,-2.9 -1,-7.7 2.4,-5.4 4.3,0.1 1.3,-2.2 -1.8,-2 5.7,-7.9 3.4,-6.1 2.3,-3.9 h 4 l 0.6,-3.1 8,0.9 -0.1,-3.6 2.6,-0.2 6,2.7 7.2,3.7 1.8,8.5 z"
     id="SE"
     name="Sweden" />
  <path
     class="Turkey"
     d="m 925.34145,243.93197 1.2,-0.7 1.1,-4 -2.7,-1.7 5,-2 4.6,0.8 0.9,2.5 4.8,2 -0.7,1.6 -6.2,0.3 -2,2 -3.9,3.4 -2,-2.9 z"
     id="path86" />
  <path
     d="m 960.64145,178.63197 2.3,2.7 0.1,1.2 6.7,2.2 3.6,-1 3.6,2.9 2.9,-0.1 7.7,2 0.4,1.9 -1.3,3.2 1.8,3.5 -0.3,2.1 -4.8,0.4 -2.2,1.8 0.4,2.7 -3.9,0.5 -3,2.1 -4.6,0.3 -4,2.4 1,3.9 2.8,1.5 5.1,-0.4 -0.6,2.3 -5.4,1.1 -6.3,3.6 -3.1,-1.3 0.7,-2.9 -5.9,-1.9 0.7,-1.2 4.6,-2.1 -1.7,-1.4 -8.1,-1.6 -0.8,-2.4 -4.5,0.8 -1.3,3.5 -3.3,4.6 -2.4,-1.1 -2.3,1.1 -2.4,-1.2 1.2,-0.7 0.6,-2.1 1.1,-2.1 -0.6,-1.1 1,-0.5 0.6,0.9 3,0.2 1.3,-0.5 -1,-0.6 0.2,-1 -2,-1.6 -1.1,-2.6 -2,-1 0.1,-2.1 -2.6,-1.7 -2,-0.3 -4,-1.9 -3.2,0.6 -1.1,0.9 h -2.1 l -1,1.5 -3.6,0.6 -1.6,1 -2.5,-1.6 h -3.2 l -3.2,-0.7 -2,1.4 -0.5,-1.7 -3,-1.7 0.7,-2.5 1.2,-1.7 1.1,0.4 -1.6,-2.8 3.8,-5.2 2.3,-0.7 0.3,-1.7 -3.2,-5.4 2.3,-0.3 2.4,-1.6 3.8,-0.2 4.9,0.5 5.7,1.5 3.9,0.1 1.9,0.9 1.7,-1.1 1.5,1.5 4.3,-0.3 2.1,0.6 -0.3,-3.1 1.3,-1.4 4.1,-0.3 1.8,0.2 1,-1.4 1.5,0.3 4.9,-0.6 3.8,3.5 -0.9,1.3 0.8,1.9 z"
     id="UA"
     name="Ukraine" />
  <path
     d="m 901.24145,234.83197 -1.2,0.3 -2.9,1 -0.1,1.3 -0.7,-0.1 -0.6,-2.3 -1.3,-0.7 -1.2,-1.7 0.8,-1.4 1.2,-0.4 0.5,-2.1 0.9,-0.4 0.8,0.9 1,0.4 0.8,1 0.9,0.3 1.1,1.2 0.7,-0.1 -0.4,1.6 -0.6,0.7 z"
     id="XK"
     name="Kosovo" />
  <path
     d="m 819.94145,181.13197 -2.8,-1.5 -3.1,-2.7 -4.5,1.3 -3.6,-0.5 2.5,-1.7 4,-9 6.5,-2.6 4,0.2 0.9,2.1 -0.9,5.6 -1.2,2.3 h -2.9 z"
     id="NL"
     name="Netherlands" />
  <path
     d="m 750.34145,267.73197 -2.2,1.6 -2.8,-0.9 -2.7,0.7 0.9,-5 -0.3,-3.9 -2.4,-0.6 -1.1,-2.4 0.5,-4.2 2.2,-2.3 0.5,-2.6 1.2,-3.8 v -2.7 l -0.9,-2.3 -0.2,-2.2 1.9,-1.6 2.2,-0.9 1.2,3.1 h 3 l 0.9,-0.8 3.1,0.2 1.3,3.2 -2.4,1.7 -0.3,5 -0.8,0.9 -0.3,3.1 -2.3,0.5 2,3.8 -1.6,4.2 1.8,1.9 -0.8,1.7 -2,2.4 z"
     id="PT"
     name="Portugal" />
  <path
     class="Russian Federation"
     d="m 898.04145,159.43197 -8.8,0.1 -5.9,-0.7 0.7,-2.6 6.3,-2 5.1,1.1 2.2,0.9 -0.2,1.7 z"
     id="path92" />
  <path
     class="Russian Federation"
     d="m 968.24145,17.13197 -4.3,0.5 -2.9,0.4 v 0.7 l -3.6,0.7 -4.5,-1 1.1,-1.4 -7.8,-0.1 6.3,-0.8 h 5.2 l 1.5,1.1 1.3,-1 2.8,-0.7 5.8,0.9 z"
     id="path99" />
  <path
     d="m 780.04145,227.43197 2,2.4 9.5,2.9 1.9,-1.4 5.8,2.9 5.9,-0.8 0.4,3.7 -4.9,4.2 -6.6,1.4 -0.5,2.1 -3.2,3.5 -2,5.2 2,3.7 -3,2.8 -1.2,4.2 -4,1.3 -3.7,4.9 -6.8,0.1 -5,-0.1 -3.4,2.2 -2.1,2.4 -2.6,-0.5 -1.9,-2.2 -1.4,-3.6 -4.9,-1 -0.4,-2.2 2,-2.4 0.8,-1.7 -1.8,-1.9 1.6,-4.2 -2,-3.8 2.3,-0.5 0.3,-3.1 0.8,-0.9 0.3,-5 2.4,-1.7 -1.3,-3.2 -3.1,-0.2 -0.9,0.8 h -3 l -1.2,-3.1 -2.2,0.9 -1.9,1.6 0.5,-4.5 -2,-2.7 7.4,-4.6 6.2,1.1 h 6.9 l 5.4,1.1 4.3,-0.4 z"
     id="ES"
     name="Spain" />
  <path
     class="France"
     d="m 839.14145,235.43197 -1.5,4.9 -2.4,-1.3 -1.3,-4.2 0.9,-2.4 3.2,-2.4 z"
     id="path101" />
  <path
     class="France"
     d="m 817.84145,189.03197 1.1,0.5 1.4,-0.1 2.4,1.6 7.2,1.2 -2.4,4.2 -0.4,4.5 -1.3,1.1 -2.3,-0.6 0.2,1.6 -3.6,3.5 v 2.9 l 2.4,-1 1.8,2.7 -0.1,1.8 1.5,2.4 -1.7,1.9 1.5,4.9 2.8,0.8 -0.5,2.7 -4.5,3.6 -10.2,-1.7 -7.4,2.1 -0.6,3.8 -5.9,0.8 -5.8,-2.9 -1.9,1.4 -9.5,-2.9 -2,-2.4 2.7,-3.8 1,-12.6 -5.1,-6.6 -3.7,-3.2 -7.6,-2.4 -0.4,-4.6 6.5,-1.3 8.3,1.6 -1.5,-7.1 4.7,2.7 11.4,-4.8 1.5,-5.1 4.2,-1.3 0.8,2.2 2.2,0.1 2.4,2.5 3.5,2.9 2.5,-0.5 z"
     id="path102" />
  <path
     class="United States"
     d="m 342.94145,198.53197 -6.1,2 -4.7,2.5 -4.6,2.7 -0.5,0.9 5.7,-1.3 2.1,2.1 4.6,-1.5 4.9,-2.1 5.4,-2.1 -3.1,3.3 2.5,0.8 2.5,2.4 5.1,-1.4 5.1,-0.5 0.3,1.8 1.5,0.2 1.2,0.2 1.5,2.5 -4.7,0.6 h -0.1 l -3.7,-0.7 -4.5,1.2 -3.7,0.6 -4.7,4.1 -3,2.3 0.4,0.7 5.5,-4.1 h 0.7 l -4.7,4.9 -2.9,4.4 -2.5,3.6 -0.6,3.1 -0.8,1.5 -0.6,1.7 0.1,3.3 0.3,0.5 1.8,-0.1 1.6,-0.7 1.4,-0.8 3.3,-3.1 1.8,-4.2 -0.1,-3.9 1.4,-2.7 2.6,-3.1 2.1,-2.2 2.7,-1.5 -0.4,2.1 2.2,-3.1 1.3,-0.6 1.7,-2.4 3.8,1.3 2.8,2.4 -0.8,2.9 -1.6,2.9 -3.8,2.5 -0.4,1.6 h 1 l 4.3,-2.7 1.6,0.6 -0.5,3.7 -0.7,2.6 -3.7,3.5 -2,2.2 -2.7,2.4 2.7,1.3 2.5,0.4 4,-0.9 3.7,-1.7 3,-0.9 4.6,-1.8 5.8,-3.8 0.1,-0.6 0.3,-1.9 2.7,-0.8 3.9,0.3 4,0.5 4.6,-2.1 0.6,-2.5 -0.2,-0.9 6.8,-4.4 2.7,-1.1 7.8,-0.1 h 9.3 l 1.1,-1.5 1.7,-0.3 2.5,-1 2.8,-2.9 3.2,-4.9 5.5,-4.7 1.1,1.6 3.7,-1 1.6,1.8 -2.9,8.5 2.2,3.6 0.2,2.1 -6.4,3 -6,2.2 -6,1.9 -4,3.8 -1.3,1.4 -1.2,3.4 0.7,3.3 2.1,0.2 0.2,-2.3 1.1,1.4 -1,1.8 -3.8,1 -2.5,-0.1 -4.2,1.1 -2.3,0.3 -3.1,0.3 -5,1.9 8.1,-1.2 1.1,1.2 -7.9,1.9 h -3.3 l 0.4,-0.8 -2.1,1.8 1.4,0.3 -2.5,4.6 -5.3,4.9 0.1,-1.7 -1.1,-0.3 -1.2,-1.6 v 3.5 l 1,1.1 -0.6,2.4 -2.4,2.5 -4.5,5.1 -0.4,-0.2 2.9,-4.4 -2,-2.4 1,-5.4 -1.9,2.8 v 4.1 l -3.2,-1 3,2 -1.5,6.1 1.4,0.5 v 2.2 l -1,6.4 -4.6,4.7 -6.1,1.9 -4.4,3.8 -2.8,0.4 -3.4,2.4 -1.3,2.1 -6.9,4.2 -3.8,3.1 -3.5,3.8 -1.9,4.5 v 4.5 l 0.6,5.5 1.5,4.5 -0.5,2.8 1.3,7.4 -1,4.4 -0.6,2.5 -2,3.9 -1.8,0.8 -2.6,-0.8 -0.4,-2.8 -1.8,-1.5 -2,-5.5 -1.6,-4.9 -0.4,-2.5 2,-4.3 -0.8,-3.5 -3.1,-5.4 -1.9,-1 -6.1,3 -0.9,-0.4 -2,-3 -3,-1.6 -6.4,0.9 -4.6,-0.8 -4.3,0.5 -2.5,1 0.6,1.7 -0.7,2.6 0.8,1.3 -1.2,0.8 -1.8,-0.9 -2.3,1.2 -3.9,-0.2 -3.3,-3.4 -4.9,0.8 -3.6,-1.5 -3.5,0.5 -5,1.5 -6.1,4.7 -6.1,2.8 -3.7,3 -1.9,2.9 -1,4.5 -0.4,3 0.6,2.2 -2.2,0.2 -3.6,-1.4 -3.9,-2 -0.9,-3 -0.2,-4.5 -2.4,-3.6 -0.9,-3.8 -1.6,-4.4 -3.2,-2.6 -4.5,0.2 -4.8,5 -4,-1.9 -2.3,-1.9 -0.4,-3.6 -0.8,-3.3 -2.4,-2.8 -2.1,-2.1 -1.3,-2.3 h -9.4 l -0.8,2.7 h -4.3 -10.8 l -10.9,-4.5 -7,-3.1 0.9,-1.3 -7.1,0.7 -6.3,0.5 0.3,-3.2 -2.1,-3.7 -2.2,-0.8 0.1,-1.8 -2.9,-0.4 -1.2,-1.7 -4.8,-0.6 -0.9,-1.1 0.8,-3.5 -2.5,-6.4 -0.5,-8.9 0.9,-1.5 -1.3,-2.1 -1.5,-5.4 1.8,-5.2 -0.9,-3.5 3.9,-5.3 2.8,-5.4 1.1,-4.9 5.5,-6 4,-5.7 4,-5.7 4.3,-8.5 1.8,-5.3 0.4,-2.9 1.4,-1.3 5.8,2.2 -1,5.9 2.2,-1.7 2.5,-5.1 1.6,-5.1 h 14.1 14.7 4.8 15.1 14.7 14.8 14.9 16.8 17 10.2 l 1.3,-2.4 h 1.7 l -0.9,3.4 1,1 3.3,0.4 4.6,1 3.9,1.9 4.4,-0.8 z"
     id="path108" />
  <path
     class="United States"
     d="m 78.441451,142.63197 -7,2.3 -0.8,-1.6 2.3,-2.8 6.4,-2.1 3.5,-0.9 2.6,0.4 v 1.9 z"
     id="path109" />
  <path
     class="United States"
     d="m 39.441451,126.03197 -3.9,0.9 -1.7,-1.1 -0.8,-1.6 5.7,-1 3,0.6 z"
     id="path110" />
  <path
     class="United States"
     d="m 40.641451,103.63197 1.2,1 3.5,-0.5 1.6,1.5 3.3,0.7 -1.2,0.7 -4.9,1.2 -1.7,-1.3 -0.3,-1 -4.3,0.3 -0.3,-0.5 z"
     id="path111" />
  <path
     class="United States"
     d="m 213.44145,70.63197 -24.6,20.4 -35.6,32.7 4.2,0.2 2.8,1.6 0.5,2.6 0.3,3.8 7.6,-3.3 6.5,-1.9 -0.6,3.1 0.8,2.4 1.6,2.7 -1.1,4.2 -1.4,6.9 4.6,3.8 -3.2,3.8 -5.1,2.9 -0.6,-2.2 -2.5,-2 3.3,-5.2 -1.6,-4.9 2.7,-5.6 -4.1,-0.4 -7.1,-0.1 -3.8,-1.8 -3.3,-6.1 -3.3,-1.1 -5.7,-2.1 -6.8,0.5 -6,-2.7 -2.7,-2.5 -6.3,1.2 -3.5,4.1 -2.9,0.4 -6.6,1.2 -6.2,2 -6.399999,1.3 3.199999,-3.5 8.4,-5.8 6.8,-1.8 0.4,-1.4 -9.4,3.2 -7.399999,3.9 -11.2,4.2 0.2,2.9 -9,4.2 -7.7,2.5 -6.6,1.9 -4,2.6 -10.6,3.1 -4.5,2.8 -8.2,2.6 -2.7,-0.4 -6.2,1.6 -7,2.1 -6.1,2 -10.0000003,1.8 0.4,-1.1 8.2000003,-2.8 6.6,-1.9 8.6,-3.3 6.5,-0.6 5,-2.5 10.4,-3.6 2.3,-1.2 5.7,-2.1 5.8,-4.5 6.2,-3.5 -7.3,1.8 -0.3,-1.1 -4.9,2.2 0.4,-3 -3.6,2.1 1.6,-2.9 -7.3,2.3 h -2.8 l 3.7,-3.5 3.3,-2.2 -0.4,-2.1 -7.2,1.2 -0.6,-2.8 -1.3,-1.4 4,-3.3 -0.4,-2.5 5.9,-3.3 7.7,-3.3 5.3,-2.9 4.1,-0.4 1.8,0.9 7.1,-2.8 2.5,0.5 5.6,-1.8 2.5,-2.6 -1.1,-1 6,-2.2 -2.8,0.1 -6.2,1.2 -2.9,1.3 -1.8,-1.3 -6.9,0.7 -4.6,-1.4 1.2,-2.3 -1,-3.2 9.2,-2.4 13.2,-2.7 h 3.5 l -4.3,2.8 9.199999,-0.2 1.2,-3.5 -2.3,-2.1 0.8,-2.8 -0.7,-2.3 -3.299999,-1.7 6.499999,-2.9 7.5,-0.2 8.8,-2.4 4.8,-2.6 7.9,-2.6 4.8,-0.6 11.2,-2.4 3.1,0.4 10.4,-2.8 4.4,1.1 -0.5,2.4 3.3,-1 6.3,0.3 -1.9,1.2 4.9,0.9 4.9,-0.5 6.2,1.6 7.2,0.6 2.2,0.6 6.6,-0.8 4.1,1.6 z"
     id="path112" />
  <path
     d="m 396.34145,426.03197 -0.5,-0.2 -0.5,-0.5 0.1,-0.6 0.2,0.3 0.4,0.4 0.3,0.5 z"
     id="AW"
     name="Aruba" />
  <path
     d="m 437.64145,388.93197 h -0.2 l 0.3,-0.4 h 0.3 l -0.2,0.3 z"
     id="AI"
     name="Anguilla" />
  <path
     class="American Samoa"
     d="m 27.7,593.3 -0.3,0.4 -0.2,0.3 -0.2,0.1 -0.4,-0.3 0.2,-0.2 h 0.3 l 0.1,-0.2 z"
     id="path113" />
  <path
     class="American Samoa"
     d="m 34.3,593.3 -0.5,0.1 -0.1,-0.2 0.4,-0.1 z"
     id="path114" />
  <path
     class="Antigua and Barbuda"
     d="m 444.14145,395.93197 0.6,0.3 -0.2,0.3 h -0.2 l -0.7,0.1 -0.2,-0.1 v -0.5 l 0.3,-0.1 0.1,-0.3 h 0.2 z"
     id="path115" />
  <path
     class="Antigua and Barbuda"
     d="m 444.14145,392.23197 h 0.2 l 0.2,0.2 0.1,0.4 -0.1,0.3 -0.2,0.1 -0.1,-0.2 -0.3,-0.2 v -0.5 z"
     id="path116" />
  <path
     class="Bahamas"
     d="m 383.84145,370.03197 -0.4,0.5 -0.2,0.5 -0.6,0.3 h -0.5 l -0.1,-0.1 -0.4,0.2 -0.5,0.1 -0.6,-0.2 -0.4,0.1 -0.1,-0.5 0.3,-0.2 0.2,-0.3 0.4,-0.2 0.3,-0.4 h 0.4 l 0.3,-0.2 0.2,0.3 0.5,0.2 0.5,-0.2 0.7,-1 h 0.3 v 0.2 z"
     id="path117" />
  <path
     class="Bahamas"
     d="m 384.04145,368.33197 -0.2,-0.6 0.6,-0.3 0.3,0.3 v 0.2 l -0.3,0.1 z"
     id="path118" />
  <path
     class="Bahamas"
     d="m 384.44145,361.83197 0.2,-0.1 0.5,0.3 h 0.4 l 0.4,0.1 0.3,0.2 v 0.3 l -0.2,0.1 -0.5,-0.4 h -0.4 l -0.1,-0.1 -0.5,0.2 -0.5,-0.2 v -0.1 l 0.2,-0.5 z"
     id="path119" />
  <path
     class="Bahamas"
     d="m 380.54145,360.03197 -0.2,0.4 v 0.7 l -0.1,0.4 -0.4,0.3 -0.2,0.4 -0.4,0.3 -0.7,0.3 -0.1,0.2 -0.2,-0.2 0.1,-0.2 0.4,-0.1 0.2,-0.2 v -0.2 l 0.4,-0.1 0.2,-0.4 0.4,-0.1 0.3,-0.4 -0.2,-0.3 h -0.4 l -0.2,-0.2 0.4,-0.5 0.1,-0.1 z"
     id="path120" />
  <path
     class="Bahamas"
     d="m 378.64145,359.73197 0.1,0.1 h 0.4 l 0.4,0.2 -0.4,0.4 -0.1,-0.2 h -0.2 l -0.4,-0.1 -0.4,-0.2 -0.3,-0.6 0.3,-0.1 0.4,0.1 z"
     id="path121" />
  <path
     class="Bahamas"
     d="m 369.44145,353.83197 0.6,0.7 0.3,0.2 0.3,0.5 -0.3,-0.1 -0.1,-0.2 -0.3,-0.1 -0.4,-0.4 -0.2,-0.1 -0.2,-0.4 z"
     id="path122" />
  <path
     class="Bahamas"
     d="m 373.14145,353.83197 0.3,0.6 0.2,0.5 v 0.4 l 0.2,0.2 0.2,0.7 v 0.9 l 0.2,0.3 0.5,0.2 0.4,0.6 v 0.8 l -0.4,-0.7 v -0.2 l -0.3,-0.4 -0.6,-0.2 0.2,-0.2 -0.3,-0.3 v -0.3 l 0.2,-0.3 -0.1,-0.5 -0.3,-0.4 0.1,-0.1 -0.3,-0.4 -0.1,-0.6 -0.2,0.1 z"
     id="path123" />
  <path
     class="Bahamas"
     d="m 376.04145,353.83197 -0.3,0.2 -0.3,-0.1 -0.1,-0.2 0.6,-0.2 z"
     id="path124" />
  <path
     class="Bahamas"
     d="m 367.84145,351.93197 -0.1,-0.1 -0.3,-0.7 h 0.2 z"
     id="path125" />
  <path
     class="Bahamas"
     d="m 378.34145,351.43197 -0.4,0.6 h -0.4 l 0.2,-0.3 0.1,-0.6 0.4,-0.3 0.1,0.4 z"
     id="path126" />
  <path
     class="Bahamas"
     d="m 359.84145,350.23197 -0.3,0.1 -0.2,0.3 -0.3,-0.1 0.6,-0.4 z"
     id="path127" />
  <path
     class="Bahamas"
     d="m 360.04145,350.93197 0.4,0.2 0.2,-0.2 0.1,-0.5 0.2,-0.1 0.2,0.6 v 0.5 l -0.1,0.3 0.1,0.6 v 0.3 l -0.4,0.8 -0.2,0.1 -0.4,-0.2 0.2,-0.3 0.4,-0.2 -0.1,-0.1 -0.6,0.4 -0.2,-0.2 0.4,-0.3 h -0.4 l -0.2,0.1 -0.2,-0.2 v -0.7 l 0.1,-0.2 -0.4,-0.5 v -0.2 l 0.4,-0.2 0.1,-0.3 0.3,-0.1 0.1,-0.2 0.6,-0.3 0.1,0.4 -0.5,0.4 z"
     id="path128" />
  <path
     class="Bahamas"
     d="m 373.54145,350.33197 0.1,0.5 -0.2,-0.1 -0.5,0.1 -0.4,0.1 -0.1,-0.2 0.3,-0.2 0.4,-0.3 v -0.2 l -0.4,-0.2 -0.2,-0.6 -0.1,-0.6 -0.4,-0.4 v -0.2 l -0.5,-0.5 0.3,-0.3 0.4,0.4 v 0.5 l 0.2,0.3 0.1,0.5 0.3,0.5 0.4,0.3 0.1,0.3 z"
     id="path129" />
  <path
     class="Bahamas"
     d="m 363.24145,344.83197 0.3,0.2 -0.6,0.3 -0.3,-0.1 -0.2,0.2 -0.5,-0.1 0.2,-0.3 0.4,-0.2 z"
     id="path130" />
  <path
     class="Bahamas"
     d="m 359.04145,344.33197 0.4,-0.2 0.3,0.3 -0.1,0.2 0.1,0.2 -0.2,0.4 0.3,0.3 0.2,0.9 0.2,0.3 0.4,0.5 -0.2,0.7 0.1,0.6 -0.2,0.3 -0.3,0.1 -0.4,0.4 -0.3,0.2 h -0.3 l -0.3,0.2 h -0.3 v -0.4 l -0.3,-0.2 0.1,-0.6 -0.3,0.3 -0.2,-0.1 -0.6,-0.4 -0.3,-0.3 -0.2,-0.3 0.7,-0.3 0.5,0.7 0.1,-0.6 -0.3,-0.1 -0.1,-0.3 0.1,-0.3 0.6,-0.6 0.2,-0.4 -0.1,-0.1 0.3,-0.4 v -0.5 l -0.2,-0.7 0.1,-0.1 h 0.3 z"
     id="path131" />
  <path
     class="Bahamas"
     d="m 367.14145,341.73197 0.1,0.2 0.3,0.4 0.8,0.7 0.5,0.1 0.1,0.1 0.2,0.4 0.3,0.4 0.5,0.4 v 0.2 l -0.2,0.8 -0.1,0.2 v 0.3 l -0.1,0.5 -0.2,0.3 -0.1,0.7 -0.1,0.1 -0.2,-0.6 -0.4,-0.3 0.1,-0.2 0.5,0.1 0.2,-0.2 -0.1,-0.2 0.1,-0.4 0.3,-0.4 0.1,-0.5 v -0.3 l -0.5,-0.4 -0.4,-0.7 -0.3,-0.2 -0.6,-0.3 -0.3,-0.3 -0.6,-0.2 -0.4,0.2 0.4,-0.9 z"
     id="path132" />
  <path
     class="Bahamas"
     d="m 358.34145,334.23197 0.5,0.2 h 0.1 l 0.7,0.1 0.2,-0.2 0.2,0.1 h 0.5 l 0.4,-0.2 h 0.4 l 0.3,-0.2 0.1,0.5 -0.1,0.2 h -0.3 -0.4 l -1.1,0.2 h -0.3 l -1.5,0.4 -0.7,0.4 h -0.4 l -0.2,-0.1 -0.3,-0.3 -0.5,-0.6 0.6,0.3 0.1,0.2 h 0.5 l 0.5,-0.2 0.4,-0.6 -0.3,-0.1 0.2,-0.3 0.1,-0.3 z"
     id="path133" />
  <path
     class="Bahamas"
     d="m 362.64145,332.93197 0.8,0.2 0.2,-0.1 0.4,0.3 0.9,1 0.2,0.6 0.4,0.1 0.7,0.5 v 0.2 l -0.2,0.5 0.2,0.7 h -0.4 l -0.5,0.4 -0.1,0.2 -0.3,1 -0.1,0.9 -0.2,0.2 -0.3,-0.2 -0.1,-0.4 -0.4,-0.1 0.3,-0.5 h 0.2 l 0.5,-0.4 -0.1,-0.4 0.2,-0.4 v -0.3 l 0.2,-0.3 v -0.6 l 0.2,-0.1 0.2,-0.3 0.1,-0.3 -0.3,-0.1 -0.5,-0.1 -0.1,-0.3 v -0.2 l -0.4,-0.2 v -0.3 l -0.3,-0.7 -0.2,-0.1 -0.3,0.1 -0.5,-0.1 h -0.3 l -0.6,-0.4 z"
     id="path134" />
  <path
     d="m 438.64145,391.03197 -0.1,-0.3 0.3,0.1 z"
     id="BL"
     name="Saint-Barthélemy" />
  <path
     d="m 440.74145,298.03197 h -0.3 l -0.1,0.1 0.1,0.2 -0.4,0.2 -0.1,-0.1 0.2,-0.1 h 0.1 l 0.1,-0.3 0.3,-0.1 z"
     id="BM"
     name="Bermuda" />
  <path
     d="m 454.94145,422.03197 -0.6,-0.2 -0.1,-0.5 v -0.8 l 0.2,-0.4 0.2,0.2 0.2,0.6 0.5,0.3 0.1,0.4 z"
     id="BB"
     name="Barbados" />
  <path
     d="m 402.44145,428.53197 h -0.3 l -0.4,-0.3 -0.3,-0.1 -0.3,-0.3 -0.1,-0.2 -0.3,-0.1 -0.2,-0.4 -0.3,-0.3 0.1,-0.5 0.5,0.3 0.1,0.5 0.4,0.4 0.7,0.2 0.2,0.3 0.3,0.4 z"
     id="CW"
     name="Curaçao" />
  <path
     class="Cayman Islands"
     d="m 336.14145,381.83197 0.3,0.1 0.2,-0.4 0.4,0.1 h 0.5 l 0.1,0.2 -0.2,0.2 -0.2,-0.1 -0.4,0.1 -0.2,0.1 h -0.7 z"
     id="path147" />
  <path
     class="Cayman Islands"
     d="m 344.24145,379.33197 -0.7,0.3 0.2,-0.3 z"
     id="path148" />
  <path
     class="Cayman Islands"
     d="m 344.84145,379.43197 -0.1,-0.1 0.8,-0.3 -0.2,0.3 z"
     id="path149" />
  <path
     d="m 445.44145,405.73197 0.5,0.1 0.2,0.5 v 0.6 l -0.1,0.8 -0.1,0.2 -0.2,0.1 -0.4,0.2 0.1,-0.4 -0.1,-0.2 -0.1,-0.7 -0.3,-0.5 v -0.3 l 0.1,-0.3 v -0.3 h 0.2 z"
     id="DM"
     name="Dominica" />
  <path
     class="Faeroe Islands"
     d="m 759.04145,116.03197 0.4,0.2 h 0.3 l 0.1,0.2 v 0.4 l 0.2,0.3 -0.1,0.2 -0.6,-0.4 -0.2,-0.4 -0.2,-0.2 -0.2,-0.3 z"
     id="path163" />
  <path
     class="Faeroe Islands"
     d="m 759.34145,114.43197 0.8,0.2 0.2,0.2 -0.1,0.4 -0.1,0.1 -0.4,-0.5 -0.5,-0.1 -0.2,-0.4 z"
     id="path164" />
  <path
     class="Faeroe Islands"
     d="m 758.06145,113.07197 0.08,0.16 h 0.3 v 0.3 h -0.4 l -0.2,0.2 -0.6,-0.2 -0.2,-0.1 -0.2,-0.3 0.5,-0.1 0.1,-0.1 0.55714,0.0929 -0.25714,-0.1929 0.2,-0.8 0.5,0.1 0.3,0.5 v 0.1 l 0.6,0.2 0.3,0.5 0.3,0.2 -0.1,0.6 -0.5,-0.4 -0.2,-0.2 -0.2,-0.1 -0.1,-0.2 -0.2,-0.2 h -0.5 z"
     id="path165" />
  <path
     class="Faeroe Islands"
     d="m 761.74145,112.43197 -0.2,-0.2 0.3,-0.2 z"
     id="path166" />
  <path
     class="Faeroe Islands"
     d="m 759.34145,112.93197 -0.4,-0.2 -0.3,-0.3 -0.1,-0.3 0.1,-0.1 0.4,-0.1 h 0.3 l 0.6,0.4 -0.1,0.2 0.1,0.2 0.6,0.2 v 0.2 l -0.4,0.3 z"
     id="path167" />
  <path
     class="Faeroe Islands"
     d="m 761.54145,112.33197 -0.3,0.4 -0.3,-0.2 h -0.3 l 0.2,-0.3 -0.1,-0.4 0.1,-0.1 0.2,0.4 z"
     id="path168" />
  <path
     class="Faeroe Islands"
     d="m 760.64145,112.33197 h -0.2 l -0.2,-0.4 0.1,-0.3 0.2,0.4 z"
     id="path169" />
  <path
     d="m 442.64145,428.53197 -0.4,0.3 -0.2,-0.1 -0.1,-0.5 0.2,-0.5 0.3,-0.4 h 0.3 l 0.1,0.3 -0.1,0.7 z"
     id="GD"
     name="Grenada" />
  <path
     class="Saint Kitts and Nevis"
     d="m 439.74145,396.03197 h -0.3 l -0.1,-0.2 0.2,-0.4 h 0.2 l 0.1,0.2 z"
     id="path173" />
  <path
     class="Saint Kitts and Nevis"
     d="m 439.04145,394.53197 -0.1,0.3 h -0.2 l -0.4,-0.2 -0.2,-0.2 0.3,-0.4 0.5,0.4 z"
     id="path174" />
  <path
     d="m 447.14145,417.83197 -0.2,-0.2 -0.4,-0.2 -0.1,-0.2 v -0.6 l 0.1,-0.2 0.7,-1.1 0.3,0.2 v 0.7 l -0.1,0.8 -0.1,0.4 z"
     id="LC"
     name="Saint Lucia" />
  <path
     d="m 437.64145,390.03197 -0.4,-0.1 0.2,-0.3 0.3,-0.1 z"
     id="MF"
     name="Saint-Martin" />
  <path
     class="Malta"
     d="m 867.34145,275.73197 -0.2,0.3 -0.5,-0.2 -0.5,-0.3 v -0.5 l -0.1,-0.1 h 0.6 l 0.4,0.3 0.2,0.2 z"
     id="path175" />
  <path
     class="Malta"
     d="m 865.74145,274.63197 -0.5,-0.1 v -0.2 l 0.4,-0.1 0.4,0.3 z"
     id="path176" />
  <path
     d="m 441.64145,397.93197 0.2,0.4 v 0.3 l -0.2,0.2 -0.2,-0.1 -0.1,-0.3 z"
     id="MS"
     name="Montserrat" />
  <path
     class="Puerto Rico"
     d="m 410.54145,389.93197 -0.3,-0.2 0.1,-0.2 h 0.3 l 0.1,0.1 z"
     id="path193" />
  <path
     class="Puerto Rico"
     d="m 425.14145,389.43197 h -0.2 l -0.9,0.3 h -0.6 l 0.2,-0.2 0.4,-0.2 0.4,-0.1 0.6,0.1 z"
     id="path194" />
  <path
     class="Puerto Rico"
     d="m 415.64145,387.03197 0.6,0.1 h 0.6 l 0.3,0.1 0.6,-0.1 0.3,0.1 0.4,-0.1 0.2,0.1 0.5,-0.1 0.4,0.1 h 0.3 l 0.8,0.2 v -0.2 l 0.6,0.2 0.1,-0.1 0.8,0.1 0.2,0.2 h 0.2 l 0.6,0.3 0.2,-0.1 -0.1,0.7 0.2,0.3 -0.9,0.3 -0.3,0.4 -0.3,0.6 -0.3,0.2 -0.3,0.1 h -0.4 l -0.6,0.1 -0.3,0.2 -0.7,-0.1 -0.2,-0.2 -0.5,0.2 -0.3,-0.3 -0.7,0.2 -0.9,-0.1 -0.3,0.1 -0.6,0.1 -0.2,0.1 -0.2,-0.2 -0.4,-0.1 -0.3,0.2 -0.6,-0.1 0.3,-0.7 v -0.4 l 0.2,-0.4 -0.2,-0.6 -0.2,-0.1 -0.1,-0.4 0.4,-0.2 0.2,-0.1 v -0.5 l 0.4,-0.2 z"
     id="path195" />
  <path
     class="French Polynesia"
     d="m 195.3,679.3 -0.1,-0.1 -0.2,-0.3 0.1,-0.2 0.3,0.2 z"
     id="path196" />
  <path
     class="French Polynesia"
     d="m 205.6,641.2 -0.1,0.1 -0.3,-0.2 0.2,-0.2 z"
     id="path197" />
  <path
     class="French Polynesia"
     d="m 2.8414507,620.53197 -0.2,-0.1 0.2,-0.6 0.5,-0.4 h 0.3 v 0.2 l -0.2,0.4 z"
     id="path198" />
  <path
     class="French Polynesia"
     d="m -44.858549,619.53197 0.7,0.2 0.3,0.4 v 0.3 l -0.2,0.1 -0.5,-0.1 -0.4,-0.6 -0.1,-0.2 -0.6,0.2 h -0.2 l -0.6,-0.1 -0.2,-0.4 -0.3,-0.5 v -0.3 l 0.1,-0.2 0.5,-0.1 h 0.5 l 0.5,0.2 0.2,0.4 0.1,0.6 z"
     id="path199" />
  <path
     class="French Polynesia"
     d="m -47.858549,618.03197 -0.2,0.6 -0.5,-0.2 0.1,-0.3 0.5,-0.2 z"
     id="path200" />
  <path
     class="French Polynesia"
     d="m 141.1,609.7 -0.2,0.1 -0.2,-0.3 0.3,-0.1 z"
     id="path201" />
  <path
     class="French Polynesia"
     d="m 139,610.1 -0.3,0.2 h -0.3 l -0.2,-0.8 0.2,-0.2 0.7,0.8 z"
     id="path202" />
  <path
     class="French Polynesia"
     d="m 138,608.3 0.2,0.1 v 0.5 l -0.4,-0.2 -0.1,-0.3 z"
     id="path203" />
  <path
     class="French Polynesia"
     d="m -30.258549,609.43197 -0.3,0.1 0.1,-0.3 z"
     id="path204" />
  <path
     class="French Polynesia"
     d="m 7.7414507,573.53197 h -0.3 v -0.4 l -0.2,-0.3 0.4,0.1 0.1,0.4 z"
     id="path205" />
  <path
     class="French Polynesia"
     d="m 4.6414507,570.03197 h -0.2 v -0.4 l 0.2,-0.3 0.3,0.2 -0.2,0.2 z"
     id="path206" />
  <path
     class="French Polynesia"
     d="m 5.8414507,568.43197 v 0.3 l -0.4,0.1 h -0.6 v 0.3 l -0.4,-0.1 -0.2,-0.2 -0.1,-0.3 0.7,-0.4 h 0.3 l 0.2,0.2 z"
     id="path207" />
  <path
     class="French Polynesia"
     d="m -1.0585493,565.83197 v 0.4 0.2 h -0.3 l -0.3,-0.4 0.3,-0.3 z"
     id="path208" />
  <path
     class="French Polynesia"
     d="m 1.3414507,562.83197 0.3,0.1 0.1,0.1 -0.6,0.2 -0.1,-0.3 z"
     id="path209" />
  <path
     class="French Polynesia"
     d="m -2.3585493,562.23197 0.9,0.1 0.3,0.3 v 0.2 l -0.4,0.3 h -0.8 l -0.1,-0.5 -0.1,-0.4 z"
     id="path210" />
  <path
     d="m 437.64145,390.03197 v 0.1 l -0.4,-0.1 v -0.1 z"
     id="SX"
     name="Sint Maarten" />
  <path
     class="Turks and Caicos Islands"
     d="m 391.14145,365.63197 h 0.7 l 0.3,0.4 h -0.3 l -0.3,-0.1 -0.5,0.1 -0.1,-0.3 z"
     id="path249" />
  <path
     class="Turks and Caicos Islands"
     d="m 388.44145,365.53197 0.3,0.4 0.6,-0.1 -0.2,0.2 h -0.6 l -0.4,-0.2 z"
     id="path250" />
  <path
     class="Turks and Caicos Islands"
     d="m 390.64145,364.93197 v 0.5 l -0.5,-0.2 -0.1,-0.3 0.1,-0.1 z"
     id="path251" />
  <path
     class="Tonga"
     d="m 14.7,639.5 -0.5,-0.3 V 639 l 0.3,-0.2 z"
     id="path252" />
  <path
     class="Tonga"
     d="m 11.9,637.4 h 0.3 l 0.4,0.3 0.3,0.1 0.2,-0.4 0.3,0.3 -0.3,0.3 0.1,0.2 -0.1,0.2 -0.2,-0.1 -0.3,-0.3 -0.7,-0.2 z"
     id="path253" />
  <path
     class="Tonga"
     d="m 11.1,628.8 -0.2,0.1 -0.1,-0.5 0.2,0.1 z"
     id="path254" />
  <path
     class="Tonga"
     d="m 15.5,621.3 -0.5,0.3 h -0.2 l -0.1,-0.1 0.3,-0.5 0.3,0.1 z"
     id="path255" />
  <path
     class="Tonga"
     d="M 1.4,602 1.3,602.1 1,602 1.1,601.8 h 0.3 z"
     id="path256" />
  <path
     class="Trinidad and Tobago"
     d="m 446.24145,436.23197 -0.2,0.5 -0.3,0.4 -0.2,0.1 -0.1,0.4 0.2,0.6 -0.2,0.1 v 0.7 l 0.2,0.3 0.2,0.2 -0.2,0.2 -0.1,0.3 v 0.7 l -0.2,0.1 -0.4,0.2 -0.5,0.1 h -0.3 l -0.5,0.1 -0.5,-0.1 -0.4,0.1 -0.3,-0.1 -0.5,0.2 -0.4,-0.2 h -0.6 l -0.3,0.2 -0.3,-0.1 0.5,-0.2 0.3,-0.3 0.4,-0.1 0.4,-0.3 0.2,-0.3 0.6,0.1 0.3,-0.4 -0.2,-0.8 0.2,-0.4 v -0.5 -0.2 l -0.3,-0.4 -0.3,-0.1 -0.4,-0.1 -0.1,-0.1 0.4,-0.3 1.1,-0.1 0.2,-0.2 h 1.1 l 0.1,-0.1 1.2,-0.2 z"
     id="path257" />
  <path
     class="Trinidad and Tobago"
     d="m 448.64145,433.03197 -0.1,0.5 -0.3,0.1 -0.4,0.3 h -0.2 l -0.7,0.4 -0.2,-0.2 0.3,-0.3 0.7,-0.5 z"
     id="path258" />
  <path
     d="m 445.64145,421.43197 -0.1,0.1 -0.5,-0.3 v -0.4 l 0.2,-0.3 0.2,-0.5 h 0.4 l 0.1,0.4 -0.1,0.8 z"
     id="VC"
     name="Saint Vincent and the Grenadines" />
  <path
     d="m 429.54145,387.43197 -0.4,0.2 h -0.1 l -0.3,0.2 -0.1,-0.1 0.1,-0.3 0.6,-0.1 z"
     id="VG"
     name="British Virgin Islands" />
  <path
     class="United States Virgin Islands"
     d="m 427.94145,391.83197 0.3,0.3 -1.1,0.2 -0.1,-0.5 0.7,-0.2 z"
     id="path259" />
  <path
     class="United States Virgin Islands"
     d="m 428.64145,388.03197 -0.2,0.2 h -0.5 v -0.2 l 0.3,-0.1 z"
     id="path260" />
  <path
     class="United States Virgin Islands"
     d="m 427.24145,387.83197 0.4,0.3 -0.2,0.2 -0.3,-0.2 h -0.5 l 0.2,-0.2 z"
     id="path261" />
  <path
     class="Samoa"
     d="m 21.9,591.3 0.3,0.1 0.3,0.1 0.3,0.2 -0.1,0.3 h -1 l -0.3,-0.1 -0.3,0.1 -0.2,-0.1 -0.4,-0.2 -0.3,0.1 -0.3,-0.2 -0.2,-0.2 -0.6,-0.3 0.1,-0.4 0.4,-0.2 h 0.4 0.5 l 0.9,0.4 0.5,0.1 z"
     id="path280" />
  <path
     class="Samoa"
     d="m 17.4,588.5 0.6,0.6 0.2,0.7 -0.1,0.3 0.1,0.3 h -0.3 l -0.3,-0.2 -0.3,0.2 -0.9,0.1 -0.3,-0.3 -0.2,-0.4 -0.2,-0.1 -0.3,-0.3 -0.5,-0.4 -0.2,-0.2 v -0.2 l 0.4,0.1 0.3,-0.1 0.6,-0.2 h 0.4 l 0.5,-0.1 h 0.3 z"
     id="path281" />
  <path
     d="m 405.44145,428.63197 h -0.2 l -0.1,-0.5 0.1,-0.3 -0.1,-0.3 -0.4,-0.1 -0.3,-0.3 0.1,-0.3 1.2,0.6 -0.1,0.2 v 0.4 l -0.2,0.2 z"
     id="BQBO"
     name="Netherlands" />
  <path
     d="m 437.74145,393.63197 -0.2,0.1 v -0.2 l 0.1,-0.1 z"
     id="BQSE"
     name="St. Eustatius (Netherlands)" />
  <path
     d="m 436.24145,392.73197 h -0.1 l 0.1,-0.2 0.1,0.1 z"
     id="BQSA"
     name="Saba (Netherlands)" />
  <path
     d="m 447.44145,410.93197 v 0.2 l 0.4,-0.1 -0.2,0.5 0.2,0.2 v 0.2 l 0.2,0.2 0.2,0.9 -0.3,0.3 -0.1,-0.4 -0.1,0.1 -0.6,-0.1 h -0.4 l -0.2,-0.3 0.6,-0.5 h -0.4 l -0.4,-0.4 -0.1,-0.5 -0.2,-0.5 0.3,-0.4 0.4,0.1 0.5,0.3 z"
     id="MQ"
     name="Martinique" />
  <path
     class="Guadeloupe"
     d="m 446.44145,403.93197 h -0.3 l -0.2,-0.4 0.1,-0.2 0.3,-0.3 0.3,0.2 0.1,0.3 v 0.2 z"
     id="path289" />
  <path
     class="Guadeloupe"
     d="m 444.64145,401.33197 h 0.3 v 0.2 0.1 l -0.2,0.1 v 0.8 0.4 l -0.2,0.2 -0.6,0.3 v -0.2 l -0.2,-0.2 -0.1,-0.5 v -0.5 l -0.1,-0.5 v -0.3 l 0.2,-0.3 0.3,-0.1 0.5,0.3 z"
     id="path290" />
  <path
     class="Guadeloupe"
     d="m 446.04145,400.93197 0.4,0.1 0.5,0.4 -1.3,0.3 -0.3,0.1 -0.4,-0.3 0.1,-0.6 0.2,-0.1 -0.1,-0.6 0.1,-0.2 0.3,-0.2 0.3,0.4 v 0.4 z"
     id="path291" />
  <circle
     cx="997.90002"
     cy="189.10001"
     id="0"
     r="0" />
  <circle
     cx="673.5"
     cy="724.09998"
     id="1"
     r="0" />
  <circle
     cx="1798.2"
     cy="719.29999"
     id="2"
     r="0" />
</svg>
